<svg width="61" height="61" viewBox="0 0 61 61" fill="none" xmlns="http://www.w3.org/2000/svg">
<circle cx="30.4405" cy="30.5596" r="28.1479" stroke="#18A0FB" stroke-width="4.58518"/>
<mask id="path-2-inside-1_150_340" fill="white">
<path d="M30.4405 0.0979004C37.0765 0.0979005 43.5307 2.26641 48.8205 6.27326C54.1103 10.2801 57.9459 15.9058 59.7432 22.2938C61.5405 28.6818 61.2011 35.4821 58.7767 41.6594C56.3524 47.8367 51.9758 53.0526 46.3133 56.5129L43.9133 52.5855C48.7196 49.6484 52.4345 45.2212 54.4923 39.9779C56.5501 34.7346 56.8382 28.9625 55.3126 23.5404C53.787 18.1182 50.5314 13.3432 46.0415 9.94214C41.5515 6.54113 36.0731 4.7005 30.4405 4.7005V0.0979004Z"/>
</mask>
<path d="M30.4405 0.0979004C37.0765 0.0979005 43.5307 2.26641 48.8205 6.27326C54.1103 10.2801 57.9459 15.9058 59.7432 22.2938C61.5405 28.6818 61.2011 35.4821 58.7767 41.6594C56.3524 47.8367 51.9758 53.0526 46.3133 56.5129L43.9133 52.5855C48.7196 49.6484 52.4345 45.2212 54.4923 39.9779C56.5501 34.7346 56.8382 28.9625 55.3126 23.5404C53.787 18.1182 50.5314 13.3432 46.0415 9.94214C41.5515 6.54113 36.0731 4.7005 30.4405 4.7005V0.0979004Z" stroke="white" stroke-width="9.17035" mask="url(#path-2-inside-1_150_340)"/>
<mask id="path-3-inside-2_150_340" fill="white">
<path d="M53.3893 10.4411C57.54 15.204 60.106 21.1403 60.7314 27.427C61.3568 33.7137 60.0107 40.0393 56.8797 45.5266L52.8821 43.2456C55.5397 38.5879 56.6823 33.2188 56.1514 27.8827C55.6206 22.5465 53.4426 17.5077 49.9194 13.465L53.3893 10.4411Z"/>
</mask>
<path d="M53.3893 10.4411C57.54 15.204 60.106 21.1403 60.7314 27.427C61.3568 33.7137 60.0107 40.0393 56.8797 45.5266L52.8821 43.2456C55.5397 38.5879 56.6823 33.2188 56.1514 27.8827C55.6206 22.5465 53.4426 17.5077 49.9194 13.465L53.3893 10.4411Z" stroke="white" stroke-width="9.17035" mask="url(#path-3-inside-2_150_340)"/>
<mask id="path-4-inside-3_150_340" fill="white">
<path d="M46.3158 56.5114C43.5091 58.2269 40.4429 59.4761 37.2364 60.2105L36.2089 55.7241C38.9305 55.1007 41.5331 54.0404 43.9154 52.5843L46.3158 56.5114Z"/>
</mask>
<path d="M46.3158 56.5114C43.5091 58.2269 40.4429 59.4761 37.2364 60.2105L36.2089 55.7241C38.9305 55.1007 41.5331 54.0404 43.9154 52.5843L46.3158 56.5114Z" stroke="#18A0FB" stroke-width="9.17035" mask="url(#path-4-inside-3_150_340)"/>
</svg>
