<svg width="44" height="45" viewBox="0 0 44 45" fill="none" xmlns="http://www.w3.org/2000/svg">
<path d="M44 22.0425C44 28.1176 41.5376 33.6176 37.5564 37.5988C33.5751 41.58 28.0751 44.0425 22 44.0425C15.9249 44.0425 10.4249 41.58 6.44365 37.5988C2.46243 33.6176 0 28.1176 0 22.0425C0 15.9673 2.46243 10.4673 6.44365 6.48613C10.4249 2.50491 15.9249 0.0424805 22 0.0424805C28.0751 0.0424805 33.5751 2.50491 37.5564 6.48613C41.5376 10.4673 44 15.9673 44 22.0425Z" fill="#E5E5E5"/>
<path d="M43.5 22.0425C43.5 27.9797 41.0941 33.354 37.2028 37.2453C33.3115 41.1366 27.9372 43.5425 22 43.5425C16.0628 43.5425 10.6885 41.1366 6.7972 37.2453C2.90592 33.354 0.5 27.9797 0.5 22.0425C0.5 16.1053 2.90592 10.731 6.7972 6.83968C10.6885 2.9484 16.0628 0.54248 22 0.54248C27.9372 0.54248 33.3115 2.9484 37.2028 6.83968C41.0941 10.731 43.5 16.1053 43.5 22.0425Z" stroke="black" stroke-opacity="0.3"/>
</svg>
