<svg width="21" height="20" viewBox="0 0 21 20" fill="none" xmlns="http://www.w3.org/2000/svg">
<path fill-rule="evenodd" clip-rule="evenodd" d="M9.66664 2.65814C9.7242 2.4756 9.83846 2.31617 9.99281 2.203C10.1472 2.08983 10.3336 2.02881 10.525 2.02881C10.7164 2.02881 10.9028 2.08983 11.0571 2.203C11.2115 2.31617 11.3257 2.4756 11.3833 2.65814L12.9333 7.4248H17.9333C18.1315 7.41731 18.3268 7.47492 18.4892 7.58883C18.6516 7.70275 18.7723 7.8667 18.8327 8.05565C18.8932 8.24459 18.8902 8.44814 18.824 8.63518C18.7579 8.82222 18.6324 8.98248 18.4666 9.09147L14.4083 12.0331L15.9583 16.8081C16.0196 16.99 16.0212 17.1867 15.9627 17.3696C15.9043 17.5524 15.7889 17.7118 15.6335 17.8244C15.4781 17.937 15.2907 17.997 15.0988 17.9955C14.9068 17.9941 14.7204 17.9314 14.5666 17.8165L10.5 14.8415L6.44164 17.7915C6.2879 17.9064 6.10145 17.9691 5.90951 17.9705C5.71758 17.972 5.53022 17.912 5.37479 17.7994C5.21936 17.6868 5.104 17.5274 5.04557 17.3446C4.98713 17.1617 4.98868 16.965 5.04998 16.7831L6.59998 12.0081L2.54164 9.06647C2.37588 8.95748 2.25035 8.79722 2.18424 8.61018C2.11813 8.42314 2.11508 8.21959 2.17554 8.03065C2.236 7.8417 2.35666 7.67775 2.51907 7.56383C2.68149 7.44992 2.87673 7.39231 3.07498 7.3998H8.07498L9.66664 2.65814Z" stroke="#EBEBEB" stroke-width="1.5" stroke-linecap="round" stroke-linejoin="round"/>
</svg>
