<svg width="52" height="60" viewBox="0 0 52 60" fill="none" xmlns="http://www.w3.org/2000/svg">
<path fill-rule="evenodd" clip-rule="evenodd" d="M17.2702 0.130767C17.2253 0.203332 17.1025 0.262704 16.9971 0.262704C16.8918 0.262704 16.5539 0.373795 16.2462 0.509426C15.9387 0.64519 15.212 0.907876 14.6314 1.09325C12.6876 1.71414 11.0695 2.30245 11.0252 2.40444C11.0009 2.46012 10.808 2.50564 10.5964 2.50564C10.3848 2.50564 10.2116 2.55762 10.2116 2.62108C10.2116 2.68454 10.0406 2.7707 9.8317 2.81252C9.62271 2.85435 9.37032 2.96557 9.27097 3.0599C9.17149 3.15411 8.92688 3.3156 8.72726 3.41851C8.52764 3.52142 8.36443 3.65507 8.36443 3.71537C8.36443 3.77566 8.29714 3.82501 8.21494 3.82501C8.02812 3.82501 7.60671 4.30209 7.50182 4.63233C7.45855 4.76876 7.3749 4.88051 7.31606 4.88051C7.25721 4.88051 7.13649 5.07353 7.0477 5.3093C6.80876 5.94484 6.63262 6.36981 6.50187 6.62683C6.43775 6.75283 6.38537 6.97197 6.38537 7.11381C6.38537 7.25564 6.326 7.40842 6.25343 7.45328C6.18087 7.49814 6.1215 7.67969 6.1215 7.85688C6.1215 8.03407 6.06213 8.17894 5.98956 8.17894C5.91699 8.17894 5.85762 8.3238 5.85762 8.501C5.85762 8.67819 5.79825 8.85973 5.72569 8.90459C5.65312 8.94945 5.59375 9.22005 5.59375 9.50609C5.59375 9.79213 5.53438 10.0261 5.46181 10.0261C5.38925 10.0261 5.32987 10.3229 5.32987 10.6857C5.32987 11.0486 5.2705 11.3454 5.19794 11.3454C5.1226 11.3454 5.066 11.7412 5.066 12.269C5.066 12.7967 5.0094 13.1925 4.93406 13.1925C4.86071 13.1925 4.80212 13.5444 4.80212 13.9842C4.80212 14.4239 4.74354 14.7758 4.67019 14.7758C4.59683 14.7758 4.53825 15.1277 4.53825 15.5674C4.53825 16.0072 4.47967 16.359 4.40631 16.359C4.33005 16.359 4.27438 16.7769 4.27438 17.3486C4.27438 17.9203 4.2187 18.3381 4.14244 18.3381C4.06908 18.3381 4.0105 18.69 4.0105 19.1297C4.0105 19.5651 3.95614 19.9213 3.88978 19.9213C3.77737 19.9213 3.73027 20.2768 3.53579 22.5931C3.49476 23.083 3.40663 23.4837 3.34 23.4837C3.27337 23.4837 3.21888 23.8399 3.21888 24.2753C3.21888 24.7107 3.16426 25.0669 3.09736 25.0669C3.03047 25.0669 2.94564 25.4973 2.90856 26.0234C2.84259 26.9618 2.71303 27.8425 2.42844 29.2889C2.34994 29.688 2.25072 30.4005 2.20811 30.8721C2.16549 31.3438 2.09016 31.7594 2.04081 31.7957C1.99147 31.832 1.84079 32.3663 1.70595 32.9831C1.57125 33.5999 1.37756 34.4608 1.27558 34.8962C1.02582 35.9627 0.854696 36.7441 0.697559 37.535C0.625521 37.8978 0.506909 38.4915 0.433948 38.8543C0.00145797 41.005 -0.139319 44.6195 0.156484 45.9789C0.414817 47.1668 0.477487 47.3643 0.595571 47.3643C0.659561 47.3643 0.712072 47.4611 0.712072 47.5795C0.712072 47.698 0.973439 48.3065 1.29273 48.9318C2.94603 52.1693 2.89959 51.9977 3.16782 55.8584C3.25226 57.0746 3.46903 57.3969 4.40631 57.7001C5.27327 57.9803 7.31315 58.0778 8.82621 57.9111C9.55186 57.8311 10.2346 57.7629 10.3435 57.7596C10.6882 57.7489 13.1506 58.0466 13.9058 58.1903C14.3049 58.2661 14.958 58.387 15.3571 58.4588C15.7562 58.5305 16.3796 58.6506 16.7424 58.7255C17.1053 58.8005 17.7139 58.8927 18.0948 58.9304C18.4757 58.9683 18.7875 59.053 18.7875 59.119C18.7875 59.1848 19.0428 59.2386 19.3548 59.2386C19.6668 59.2386 19.9786 59.2927 20.0475 59.359C20.1773 59.4835 21.0388 59.5954 22.7456 59.7093C23.2898 59.7457 23.855 59.8354 24.0015 59.9087C24.4647 60.1408 30.9257 59.8862 30.9257 59.6358C30.9257 59.576 31.2375 59.4945 31.6184 59.4546C32.891 59.3219 33.4974 59.2126 33.6238 59.0932C33.6927 59.0281 34.0306 58.9748 34.3747 58.9748C34.7188 58.9748 35.0369 58.9154 35.0817 58.8428C35.1266 58.7703 35.4234 58.7109 35.7414 58.7109C36.0594 58.7109 36.3516 58.6589 36.3909 58.5954C36.4301 58.532 36.775 58.445 37.1574 58.4023C37.8498 58.3247 38.5054 58.197 39.6335 57.9198C39.9601 57.8396 40.5241 57.7199 40.887 57.6538C41.2498 57.5878 41.9622 57.4405 42.4702 57.3263C43.8152 57.0245 45.8008 56.6085 46.5603 56.4698C46.9231 56.4034 47.5465 56.2844 47.9456 56.2053C49.4666 55.9037 49.9549 55.9014 50.6283 56.1923C50.979 56.3439 51.291 56.468 51.3216 56.468C51.3523 56.468 51.3622 51.0865 51.3436 44.509C51.3142 34.0303 51.2855 32.5386 51.1121 32.4572C51.0032 32.4062 50.7815 32.2959 50.6192 32.212C50.4569 32.1282 50.2081 32.0596 50.0662 32.0596C49.9244 32.0596 49.7716 32.0002 49.7267 31.9276C49.6819 31.8551 49.5038 31.7957 49.3309 31.7957C49.1581 31.7957 48.9841 31.7429 48.9441 31.6783C48.7479 31.3608 45.5273 31.1588 44.7131 31.4129C44.4229 31.5036 44.1289 31.6268 44.06 31.6867C43.9912 31.7466 43.7981 31.7957 43.6312 31.7957C43.4643 31.7957 43.3278 31.8551 43.3278 31.9276C43.3278 32.0002 43.2387 32.0596 43.1299 32.0596C43.021 32.0596 42.932 32.1189 42.932 32.1915C42.932 32.2641 42.8371 32.3234 42.721 32.3234C42.605 32.3234 42.3437 32.5016 42.1404 32.7193C41.937 32.937 41.7034 33.1151 41.6212 33.1151C41.4344 33.1151 40.5571 33.9815 40.5571 34.1662C40.5571 34.2412 40.4977 34.3025 40.4252 34.3025C40.3526 34.3025 40.2932 34.3785 40.2932 34.4712C40.2932 34.5641 40.1745 34.7256 40.0294 34.8303C39.6481 35.1051 39.7049 35.4328 40.167 35.6242C40.3878 35.7157 40.7504 35.9604 40.9726 36.168C41.1948 36.3756 41.4292 36.5454 41.4935 36.5454C41.6663 36.5454 42.3264 37.2687 42.5093 37.6583C42.9584 38.6153 43.0565 39.0359 43.1423 40.3716L43.1973 41.2292L42.7841 40.4376C42.5567 40.0022 42.319 39.6262 42.2555 39.602C42.1922 39.5777 42.1404 39.4442 42.1404 39.3052C42.1404 39.1661 42.0938 39.0522 42.0369 39.0522C41.9799 39.0522 41.8219 38.8634 41.6854 38.6325C41.5491 38.4018 41.2329 38.0307 40.9827 37.8079C40.7326 37.5852 40.3888 37.2695 40.2187 37.1062C40.0486 36.9428 39.8176 36.8093 39.7055 36.8093C39.5933 36.8093 39.5016 36.7605 39.5016 36.7009C39.5016 36.6078 38.7754 36.2521 37.8524 35.893C37.1798 35.6314 36.6122 35.4899 36.2346 35.4899C36.0082 35.4899 35.7914 35.4389 35.7527 35.3763C35.4972 34.9628 28.257 34.9555 27.8318 35.3683C27.7628 35.4352 27.48 35.4899 27.2032 35.4899C26.9265 35.4899 26.597 35.5424 26.471 35.6067C26.345 35.6708 25.8263 35.8537 25.3184 36.0128C24.1541 36.3776 23.6691 36.5825 23.6691 36.7096C23.6691 36.7644 23.6071 36.8093 23.5313 36.8093C22.9965 36.8093 18.7875 40.4418 18.7875 40.9032C18.7875 40.988 18.6241 41.2148 18.4246 41.4072C18.225 41.5996 17.9775 41.9203 17.8746 42.1198C17.7717 42.3193 17.638 42.4826 17.5777 42.4826C17.5174 42.4826 17.4681 42.5605 17.4681 42.6556C17.4681 42.7508 17.3557 42.9494 17.2182 43.0969C17.0809 43.2443 16.8582 43.5673 16.7234 43.8144L16.4786 44.2638L16.4385 43.4085C16.4143 42.8915 16.4534 42.535 16.5374 42.507C16.6139 42.4814 16.6765 42.3599 16.6765 42.2368C16.6765 42.1138 16.7952 41.9275 16.9403 41.8229C17.0855 41.7183 17.2042 41.554 17.2042 41.458C17.2042 41.3618 17.3527 41.1347 17.5341 40.9533C17.7155 40.7719 17.8639 40.5683 17.8639 40.501C17.8639 40.4336 18.1311 40.1114 18.4576 39.7849C18.7842 39.4583 19.0513 39.1243 19.0513 39.0427C19.0513 38.9611 19.2338 38.7237 19.4569 38.5154C19.8604 38.1384 19.8622 38.1307 19.793 37.044C19.7307 36.0664 19.6418 35.2584 19.3716 33.214C19.3259 32.8693 19.2353 32.5873 19.17 32.5873C19.1048 32.5873 19.0513 32.4092 19.0513 32.1915C19.0513 31.9738 18.992 31.7957 18.9194 31.7957C18.8468 31.7957 18.7875 31.677 18.7875 31.5318C18.7875 31.3867 18.7281 31.2679 18.6555 31.2679C18.583 31.2679 18.5236 31.171 18.5236 31.0525C18.5236 30.934 18.4192 30.7411 18.2918 30.6237C18.1643 30.5064 17.9762 30.247 17.8737 30.0475C17.7713 29.848 17.638 29.6847 17.5777 29.6847C17.5174 29.6847 17.4681 29.5956 17.4681 29.4868C17.4681 29.3779 17.4087 29.2889 17.3362 29.2889C17.2636 29.2889 17.2042 29.211 17.2042 29.1159C17.2042 29.0207 17.0855 28.8154 16.9403 28.6596C16.7952 28.5039 16.6763 28.3293 16.6762 28.2719C16.6759 28.2144 16.498 27.9596 16.2807 27.7056C16.0634 27.4517 15.8854 27.1697 15.8851 27.0789C15.885 26.9883 15.8294 26.914 15.7618 26.914C15.6941 26.914 15.6012 26.7957 15.5553 26.6509C15.5094 26.5062 15.3922 26.3083 15.295 26.2111C15.0779 25.994 14.0392 23.9464 13.8992 23.4596C13.8433 23.265 13.8834 21.7511 13.9884 20.0952C14.2107 16.5874 14.2793 13.0187 14.1342 12.4999C14.0784 12.3004 13.9447 12.1371 13.8373 12.1371C13.7298 12.1371 13.6419 12.0777 13.6419 12.0051C13.6419 11.9325 13.5529 11.8732 13.444 11.8732C13.3352 11.8732 13.2461 11.8138 13.2461 11.7412C13.2461 11.6687 13.157 11.6093 13.0482 11.6093C12.9394 11.6093 12.8503 11.5499 12.8503 11.4774C12.8503 11.4048 12.7867 11.3454 12.709 11.3454C12.6311 11.3454 12.4926 11.2713 12.4009 11.1805C12.3092 11.0899 12.076 10.8976 11.8825 10.7534C11.2768 10.3017 11.5102 9.49831 12.2472 9.49831C12.4617 9.49831 12.5864 9.57153 12.5864 9.6974C12.5864 9.80691 12.7645 10.0829 12.9822 10.3106C13.1999 10.5385 13.378 10.7774 13.378 10.8417C13.378 10.948 13.6675 11.2801 14.6508 12.302C14.9113 12.5727 15.127 12.6648 15.5006 12.6648C15.7759 12.6648 16.0379 12.6054 16.0828 12.5329C16.1276 12.4603 16.3651 12.4009 16.6105 12.4009C16.8559 12.4009 17.0934 12.3416 17.1383 12.269C17.1831 12.1964 17.3943 12.1371 17.6078 12.1371C17.8213 12.1371 17.9958 12.0777 17.9958 12.0051C17.9958 11.9325 18.2333 11.8732 18.5236 11.8732C18.8139 11.8732 19.0513 11.9266 19.0513 11.9918C19.0513 12.1301 19.8691 12.2571 21.368 12.3517L22.4314 12.4189L22.9844 11.8821C23.2886 11.587 23.6199 11.3454 23.7206 11.3454C23.9163 11.3454 24.1346 10.5093 23.9971 10.2869C23.9528 10.2151 23.9131 9.91747 23.9091 9.6255C23.9039 9.24275 23.9799 9.0269 24.1813 8.85221C24.335 8.71882 24.4608 8.54321 24.4608 8.46181C24.4608 8.32407 24.6977 7.99053 25.0875 7.57994C25.1782 7.48429 25.2524 7.3129 25.2524 7.19877C25.2524 7.08478 25.3118 6.9915 25.3843 6.9915C25.4569 6.9915 25.5163 6.90244 25.5163 6.7936C25.5163 6.68475 25.5756 6.59569 25.6482 6.59569C25.7208 6.59569 25.7801 6.41757 25.7801 6.19988C25.7801 5.98218 25.7208 5.80407 25.6482 5.80407C25.5756 5.80407 25.5163 5.74219 25.5163 5.66646C25.5163 5.50602 23.6562 3.64861 23.0118 3.16532C22.7699 2.98391 22.507 2.77294 22.4279 2.69655C22.3486 2.62016 21.8088 2.20495 21.2283 1.77378C20.6478 1.34248 20.1431 0.9592 20.1068 0.921862C20.0706 0.884656 19.8187 0.706145 19.547 0.525391C19.2754 0.344637 19.0528 0.152272 19.0523 0.0977822C19.0508 -0.0519665 17.3639 -0.0208293 17.2702 0.130767ZM9.41993 30.6781C9.41993 30.8529 9.54276 31.2148 9.69304 31.4822C9.87155 31.8 9.93844 32.087 9.88633 32.3108C9.79067 32.7216 9.45304 33.9496 9.2839 34.5009C8.98018 35.492 8.88242 36.9343 9.02332 38.349C9.17861 39.9076 9.36755 41.0911 9.58195 41.8461C9.65768 42.1128 9.67259 42.4393 9.61533 42.5718C9.5173 42.7981 9.50753 42.7966 9.45265 42.5486C9.42059 42.4034 9.34076 42.2282 9.27519 42.1594C9.20962 42.0904 9.15605 41.901 9.15605 41.7384C9.15605 41.5757 9.09668 41.406 9.02412 41.3611C8.95155 41.3163 8.89218 41.0754 8.89218 40.8256C8.89218 40.5759 8.83874 40.3716 8.77357 40.3716C8.64334 40.3716 8.563 39.8513 8.35704 37.6759C8.21706 36.1975 8.32907 34.0863 8.62698 32.5873C8.70628 32.1882 8.80497 31.6681 8.84626 31.4317C8.88756 31.1951 8.97411 30.969 9.03863 30.9291C9.10328 30.8892 9.15605 30.7081 9.15605 30.5267C9.15605 30.3404 9.21345 30.2324 9.28799 30.2784C9.36056 30.3233 9.41993 30.5031 9.41993 30.6781ZM30.4775 47.2995C32.8032 47.2995 35.623 46.2428 37.3897 45.8028C37.6598 45.7355 37.6731 45.8569 37.2853 46.2428C35.2623 48.2564 32.0743 49.2482 29.6199 49.0806C27.1655 48.9131 24.512 47.6236 22.9694 46.1775L22.5477 45.7822C24.0126 46.1775 27.7474 47.2995 30.4775 47.2995Z" fill="white"/>
</svg>
