<svg width="132" height="65" viewBox="0 0 132 65" fill="none" xmlns="http://www.w3.org/2000/svg">
<g clip-path="url(#clip0_475_3364)">
<path d="M84.5657 44.9274C99.0572 39.2536 108.084 35.9942 132.031 30.26C119.014 31.105 90.3377 32.9762 70.5655 36.8392C70.504 36.7788 84.2587 44.7463 84.5657 44.9274Z" fill="white"/>
<path d="M39.4948 63.82H58.4688C62.1531 58.2669 66.0215 55.4904 70.2584 52.4724C67.004 51.2049 63.6882 49.9977 60.3109 48.8508C48.2142 54.0418 41.4597 61.0435 39.4948 63.82Z" fill="white"/>
<path d="M43.2405 43.4788C26.3542 49.394 16.9593 55.9128 10.6346 63.82H31.5122C33.5385 60.983 41.3369 52.9552 55.9512 47.4021C51.8371 46.0139 44.8984 43.9013 43.2405 43.4788Z" fill="white"/>
<path d="M51.9599 30.9241H5.72229C52.3283 39.2537 74.8024 49.9373 111.031 64.9669C107.838 62.7336 57.9776 33.8817 51.9599 30.9241Z" fill="white"/>
<path d="M101.391 4.54688C95.2501 4.54688 91.1974 8.10809 91.1974 13.4197C91.1974 18.4899 95.6185 22.2926 101.391 22.2926C107.408 22.2926 111.645 18.6107 111.645 13.4197C111.645 8.10809 107.531 4.54688 101.391 4.54688ZM101.391 17.9467C98.8116 17.9467 96.7852 15.8945 96.7852 13.4197C96.7852 10.945 98.873 8.89276 101.391 8.89276C103.908 8.89276 105.996 10.945 105.996 13.4197C105.996 15.8945 103.97 17.9467 101.391 17.9467Z" fill="white"/>
<path d="M80.82 4.78843H77.1358V9.37576H79.6533C81.6797 9.37576 83.3376 11.1262 83.3376 13.2388C83.3376 15.8342 81.1885 17.1018 79.7762 17.1621H75.2322V0.0200195H69.583V21.7495H79.7762C84.2587 21.7495 89.1097 18.4297 89.1097 13.4198C88.9868 8.04785 84.8113 4.78843 80.82 4.78843Z" fill="white"/>
<path d="M29.8543 13.2386C29.8543 11.0657 31.635 9.31524 33.7841 9.31524H38.2667L34.6438 15.2908H40.0474L43.6703 9.73776V4.84863H32.8631C28.1349 4.84863 24.3279 8.65129 24.3279 13.299C24.3279 17.9467 28.1349 21.7493 32.8631 21.7493H43.6703V17.162H33.7841C31.635 17.162 29.8543 15.4116 29.8543 13.2386Z" fill="white"/>
<path d="M13.7663 0.0200195H0.0116577V21.7495H5.47666V4.78843H12.5996C14.5645 4.78843 16.6523 5.81454 16.6523 8.65144C16.6523 10.8244 15.0558 12.5145 12.9066 12.5145H7.44161V17.0414H11.3101C14.6259 17.1621 16.0382 18.6711 16.0996 21.8702V26.5179H21.8717V20.3008C21.8717 17.0414 19.5383 15.3514 17.2663 14.8081C20.8278 13.6009 22.6085 10.8847 22.6085 7.56497C22.4243 2.91728 17.9418 0.0200195 13.7663 0.0200195Z" fill="white"/>
<path d="M126.873 12.6955C130.681 11.5487 131.786 9.49648 131.786 5.39202V4.78843H126.198V5.69382C126.198 8.41 125.031 10.4019 122.391 10.4019H119.751V0.0200195H114.101V21.7495H119.751V14.9892H121.777C124.601 14.9892 126.321 16.5585 126.321 19.0937V21.7495H131.97V19.2747C131.97 16.0153 130.496 13.6613 126.873 12.6955Z" fill="white"/>
<path d="M51.8985 13.2387C51.8985 11.0657 53.6792 9.3153 55.8284 9.3153H60.3109L56.688 15.2305H62.0916L65.7145 9.67746V4.78833H54.9073C50.1791 4.78833 46.3721 8.59099 46.3721 13.2387C46.3721 17.8864 50.1791 21.689 54.9073 21.689H65.7145V17.1017H55.767C53.6792 17.162 51.8985 15.4116 51.8985 13.2387Z" fill="white"/>
</g>
<defs>
<clipPath id="clip0_475_3364">
<rect width="132" height="65" fill="white"/>
</clipPath>
</defs>
</svg>
