<svg width="95" height="63" viewBox="0 0 95 63" fill="none" xmlns="http://www.w3.org/2000/svg">
<g clip-path="url(#clip0_475_3349)">
<path d="M93.6599 51.1889H89.5596C89.4296 50.5032 89.2307 50.0178 88.963 49.7481C88.5269 49.309 87.7773 49.0778 86.7445 49.0778C85.7271 49.0778 85.0234 49.2473 84.6256 49.594C84.3272 49.8483 84.1742 50.2027 84.1742 50.6496C84.1742 51.2736 85.0387 51.7744 86.7522 52.1596C88.7029 52.5834 90.1028 52.9609 90.9672 53.2537C91.1967 53.3384 91.3879 53.4078 91.5333 53.4848C93.1703 54.263 94.0271 55.4187 94.1265 56.9519V57.6145C94.0271 59.479 93.1856 60.8581 91.6021 61.7364C91.3879 61.852 91.189 61.9521 90.9672 62.0523C89.8809 62.5223 88.6034 62.7611 87.1806 62.7611C85.0463 62.7611 83.3175 62.3759 82.0017 61.6208C81.1755 61.1354 80.5559 60.5268 80.1428 59.7948C79.7297 59.0629 79.5232 58.2077 79.5232 57.2215H83.8223C83.8223 57.9612 84.0901 58.5467 84.6179 58.9473C85.1457 59.3634 86.0331 59.5791 87.2877 59.5791C88.2362 59.5791 88.94 59.3788 89.4067 58.9782C89.7738 58.6623 89.9421 58.3233 89.9421 57.9226C89.9421 57.2523 89.093 56.7284 87.4101 56.3586C84.8933 55.8193 83.3098 55.3724 82.6596 55.0643C80.9384 54.2553 80.0893 52.9994 80.0893 51.2582C80.0893 49.8637 80.5253 48.6772 81.4356 47.7141C82.5678 46.5045 84.266 45.9036 86.5151 45.9036C88.3663 45.9036 89.8503 46.1732 90.9672 46.7048C91.0667 46.7434 91.1508 46.7896 91.2349 46.8512C92.0382 47.2904 92.6501 47.8759 93.0556 48.6079C93.4534 49.309 93.6599 50.1796 93.6599 51.1889Z" fill="white"/>
<path d="M91.8087 40.6723C91.8928 40.7878 91.9387 40.9111 91.9387 41.0575C91.9387 41.2578 91.8699 41.4273 91.7245 41.5737C91.5869 41.7201 91.4033 41.8048 91.1738 41.8202C91.2732 41.8588 91.3421 41.905 91.3956 41.9589L91.7934 42.4905L92.107 43.0144H91.5945L91.3574 42.5907C91.2044 42.321 91.0743 42.1207 90.9596 42.0205C90.9443 42.0051 90.929 41.9897 90.906 41.9743L90.5694 41.8742H90.317V43.0144H89.8886V40.3333H90.8066C90.8678 40.3333 90.9213 40.3487 90.9596 40.3487C91.1891 40.3487 91.3574 40.3795 91.4721 40.418C91.6098 40.4565 91.7246 40.5413 91.8087 40.6723ZM91.4721 41.1037C91.4721 41.019 91.4568 40.9496 91.4186 40.888C91.3803 40.8186 91.3191 40.7724 91.235 40.7493C91.1814 40.7339 91.0896 40.7185 90.9672 40.7031H90.317V41.5043H90.8372C90.8754 41.5043 90.9366 41.5043 90.9672 41.5043C91.1508 41.4889 91.2809 41.4581 91.3497 41.3888C91.4262 41.3117 91.4721 41.2116 91.4721 41.1037Z" fill="white"/>
<path d="M93.4228 41.6431C93.4228 42.0592 93.3233 42.4675 93.0938 42.8681C92.8796 43.2688 92.5813 43.5692 92.1912 43.7773C91.7934 44.0084 91.3956 44.1086 90.9749 44.1086C90.9596 44.1086 90.9596 44.1086 90.9596 44.1086C90.5388 44.1086 90.141 44.0084 89.7433 43.7773C89.3455 43.5615 89.0471 43.2611 88.8406 42.8681C88.6111 42.4675 88.5193 42.0592 88.5193 41.6431C88.5193 41.2039 88.6187 40.7879 88.8406 40.3873C89.0701 39.9866 89.3684 39.6939 89.7585 39.4781C90.1563 39.2624 90.5541 39.1622 90.9596 39.1545C90.9596 39.1545 90.9596 39.1545 90.9749 39.1545C91.3879 39.1545 91.7857 39.2701 92.1759 39.4781C92.5736 39.6939 92.8873 39.9943 93.0938 40.3873C93.3233 40.7879 93.4228 41.2039 93.4228 41.6431ZM93.0097 41.6431C93.0097 41.2733 92.9255 40.9343 92.7419 40.603C92.5584 40.2717 92.3059 40.0174 91.977 39.8325C91.6557 39.663 91.3114 39.5629 90.9749 39.5629C90.9596 39.5629 90.9596 39.5629 90.9596 39.5629C90.623 39.5629 90.2787 39.663 89.9574 39.8325C89.6285 40.0174 89.3761 40.2717 89.1925 40.603C89.0089 40.9343 88.9094 41.2733 88.9094 41.6431C88.9094 41.9975 89.0089 42.3365 89.1925 42.6678C89.3608 42.9837 89.6209 43.2379 89.9421 43.4229C90.2711 43.6078 90.6077 43.6925 90.9596 43.6925C90.9596 43.6925 90.9596 43.6925 90.9749 43.6925C91.3267 43.6925 91.671 43.6078 91.9923 43.4229C92.3136 43.2379 92.5737 42.9837 92.7419 42.6678C92.9255 42.3365 93.0097 41.9975 93.0097 41.6431Z" fill="white"/>
<path d="M69.3567 21.5111L80.9766 41.0035H62.3189L51.2268 22.3817L42.8274 8.29008L51.2268 3.20509L56.5128 0L69.3567 21.5111Z" fill="white"/>
<path d="M73.9312 55.4187V53.6544C73.5181 51.5202 71.6363 49.8946 69.4026 49.8946C69.3873 49.8946 69.372 49.8946 69.3567 49.8946C66.8246 49.91 64.7745 51.9902 64.7745 54.5404C64.7745 57.0906 66.8246 59.1708 69.3567 59.2017C69.372 59.2017 69.3873 59.2017 69.4026 59.2017C71.6363 59.194 73.5181 57.5529 73.9312 55.4187ZM77.7943 54.5327V62.5223H73.9312V61.6363C72.6308 62.4915 71.0702 62.9923 69.4026 62.9923C69.3873 62.9923 69.372 62.9923 69.3567 62.9923C64.7439 62.9615 60.9955 59.1708 60.9955 54.525C60.9955 49.8792 64.7439 46.0885 69.3567 46.0654C69.372 46.0654 69.3873 46.0654 69.4026 46.0654C71.0702 46.0654 72.6308 46.5662 73.9312 47.4214V46.4969H77.7943V54.5327V54.5327Z" fill="white"/>
<path d="M55.7937 55.4187V53.6544C55.3806 51.5202 53.4988 49.8946 51.265 49.8946C51.2497 49.8946 51.2344 49.8946 51.2268 49.8946C48.6947 49.91 46.6446 51.9902 46.6446 54.5404C46.6446 57.0906 48.6947 59.1709 51.2268 59.2017C51.2421 59.2017 51.2574 59.2017 51.265 59.2017C53.4988 59.194 55.3883 57.5529 55.7937 55.4187ZM59.6568 54.5327V62.5223H55.7937V61.6363C54.4779 62.4915 52.9327 62.9923 51.265 62.9923C51.2497 62.9923 51.2344 62.9923 51.2268 62.9923C46.614 62.9615 42.8656 59.1709 42.8656 54.525C42.8656 49.8792 46.614 46.0886 51.2268 46.0654C51.2421 46.0654 51.2574 46.0654 51.265 46.0654C52.9327 46.0654 54.4779 46.5662 55.7937 47.4214V40.9958H59.6568V54.5327Z" fill="white"/>
<path d="M51.2268 33.3376L55.7784 41.0036H37.136L26.7859 23.653L26.3346 22.8902L26.7859 22.6205L40.0352 14.5847L51.2268 33.3376Z" fill="white"/>
<path d="M37.1513 62.5301H41.351V46.0732H37.1513V62.5301Z" fill="white"/>
<path d="M37.1513 44.802H41.351V41.0884H37.1513V44.802Z" fill="white"/>
<path d="M31.3681 55.4187V53.6544C30.955 51.5202 29.0732 49.8946 26.8241 49.8946C26.8088 49.8946 26.7935 49.8946 26.7782 49.8946C24.2462 49.91 22.196 51.9902 22.196 54.5404C22.196 57.0906 24.2462 59.1709 26.7782 59.2017C26.7935 59.2017 26.8088 59.2017 26.8241 59.2017C29.0732 59.194 30.955 57.5529 31.3681 55.4187ZM35.2236 54.5327V62.5223H31.3604V61.6363C30.0447 62.4915 28.4918 62.9923 26.8165 62.9923C26.8012 62.9923 26.7859 62.9923 26.7706 62.9923C22.1578 62.9615 18.4094 59.1709 18.4094 54.525C18.4094 49.8792 22.1578 46.0886 26.7706 46.0654C26.7859 46.0654 26.8012 46.0654 26.8165 46.0654C28.4841 46.0654 30.0447 46.5662 31.3604 47.4214V40.9958H35.2236V54.5327Z" fill="white"/>
<path d="M26.7859 34.5933L30.6031 41.0034H11.9454L9.84937 37.4825L23.5577 29.1924L26.7859 34.5933Z" fill="white"/>
<path d="M13.047 55.4188V53.6545C12.6339 51.5204 10.752 49.8947 8.50301 49.8947C8.48771 49.8947 8.47241 49.8947 8.45711 49.8947C5.94035 49.9101 3.89022 51.9903 3.89022 54.5405C3.89022 57.0907 5.94035 59.171 8.45711 59.2018C8.47241 59.2018 8.48771 59.2018 8.50301 59.2018C10.7597 59.1941 12.6415 57.553 13.047 55.4188ZM16.9101 54.5328V62.5224H13.047V61.6364C11.7312 62.4916 10.1707 62.9924 8.50301 62.9924C8.48771 62.9924 8.47241 62.9924 8.45711 62.9924C3.86727 62.9693 0.118896 59.1787 0.118896 54.5328C0.118896 49.887 3.86727 46.1041 8.46476 46.0732C8.48006 46.0732 8.49536 46.0732 8.51066 46.0732C10.1783 46.0732 11.7312 46.574 13.0546 47.4292V46.5047H16.9177V54.5328H16.9101Z" fill="white"/>
</g>
<defs>
<clipPath id="clip0_475_3349">
<rect width="94" height="63" fill="white" transform="translate(0.118896)"/>
</clipPath>
</defs>
</svg>
