<svg width="151" height="150" viewBox="0 0 151 150" fill="none" xmlns="http://www.w3.org/2000/svg">
<circle cx="75.3536" cy="75.1466" r="72.561" stroke="#18A0FB" stroke-width="4.58518"/>
<mask id="path-2-inside-1_319_12069" fill="white">
<path d="M75.3536 0.241699C91.6717 0.241699 107.543 5.57409 120.55 15.427C133.558 25.2799 142.99 39.1136 147.409 54.8217C151.829 70.5299 150.995 87.252 145.033 102.442C139.071 117.632 128.309 130.458 114.385 138.967L108.484 129.31C120.302 122.087 129.437 111.201 134.497 98.3073C139.558 85.414 140.266 71.2202 136.515 57.8871C132.763 44.554 124.758 32.812 113.717 24.4489C102.676 16.0857 89.2044 11.5596 75.3536 11.5596L75.3536 0.241699Z"/>
</mask>
<path d="M75.3536 0.241699C91.6717 0.241699 107.543 5.57409 120.55 15.427C133.558 25.2799 142.99 39.1136 147.409 54.8217C151.829 70.5299 150.995 87.252 145.033 102.442C139.071 117.632 128.309 130.458 114.385 138.967L108.484 129.31C120.302 122.087 129.437 111.201 134.497 98.3073C139.558 85.414 140.266 71.2202 136.515 57.8871C132.763 44.554 124.758 32.812 113.717 24.4489C102.676 16.0857 89.2044 11.5596 75.3536 11.5596L75.3536 0.241699Z" stroke="white" stroke-width="18" mask="url(#path-2-inside-1_319_12069)"/>
<mask id="path-3-inside-2_319_12069" fill="white">
<path d="M131.785 25.6748C141.992 37.3868 148.302 51.9844 149.84 67.4435C151.377 82.9026 148.067 98.4572 140.368 111.951L130.538 106.342C137.073 94.8884 139.883 81.6856 138.577 68.5639C137.272 55.4422 131.916 43.0518 123.253 33.1106L131.785 25.6748Z"/>
</mask>
<path d="M131.785 25.6748C141.992 37.3868 148.302 51.9844 149.84 67.4435C151.377 82.9026 148.067 98.4572 140.368 111.951L130.538 106.342C137.073 94.8884 139.883 81.6856 138.577 68.5639C137.272 55.4422 131.916 43.0518 123.253 33.1106L131.785 25.6748Z" stroke="white" stroke-width="18" mask="url(#path-3-inside-2_319_12069)"/>
<mask id="path-4-inside-3_319_12069" fill="white">
<path d="M114.391 138.963C107.49 143.182 99.9497 146.254 92.065 148.06L89.5382 137.027C96.2308 135.495 102.631 132.887 108.489 129.307L114.391 138.963Z"/>
</mask>
<path d="M114.391 138.963C107.49 143.182 99.9497 146.254 92.065 148.06L89.5382 137.027C96.2308 135.495 102.631 132.887 108.489 129.307L114.391 138.963Z" stroke="#18A0FB" stroke-width="18" mask="url(#path-4-inside-3_319_12069)"/>
</svg>
