<svg width="44" height="45" viewBox="0 0 44 45" fill="none" xmlns="http://www.w3.org/2000/svg">
<path d="M44 22.0425C44 28.1176 41.5376 33.6176 37.5563 37.5988C33.5751 41.58 28.0751 44.0425 22 44.0425C15.9249 44.0425 10.4249 41.58 6.44365 37.5988C2.46243 33.6176 0 28.1176 0 22.0425C0 15.9673 2.46243 10.4673 6.44365 6.48613C10.4249 2.50491 15.9249 0.0424805 22 0.0424805C28.0751 0.0424805 33.5751 2.50491 37.5563 6.48613C41.5376 10.4673 44 15.9673 44 22.0425Z" fill="#E5E5E5"/>
<path d="M21.2929 22.0425L6.44774 36.8876C2.76239 33.0279 0.5 27.7999 0.5 22.0425C0.5 16.2851 2.76239 11.057 6.44774 7.19732L21.2929 22.0425ZM37.5523 36.8876L22.7071 22.0425L37.5523 7.19732C41.2376 11.057 43.5 16.2851 43.5 22.0425C43.5 27.7999 41.2376 33.0279 37.5523 36.8876ZM36.8452 6.49022L22 21.3354L7.15484 6.49022C11.0146 2.80487 16.2426 0.54248 22 0.54248C27.7574 0.54248 32.9854 2.80487 36.8452 6.49022ZM22 22.7496L36.8452 37.5947C32.9854 41.2801 27.7574 43.5425 22 43.5425C16.2426 43.5425 11.0146 41.2801 7.15484 37.5947L22 22.7496Z" stroke="black" stroke-opacity="0.3"/>
</svg>
