<svg width="44" height="45" viewBox="0 0 44 45" fill="none" xmlns="http://www.w3.org/2000/svg">
<path d="M44 22.1299C44 28.205 41.5376 33.705 37.5563 37.6862C33.5751 41.6674 28.0751 44.1299 22 44.1299C15.9249 44.1299 10.4249 41.6674 6.44365 37.6862C2.46243 33.705 0 28.205 0 22.1299C0 16.0548 2.46243 10.5548 6.44365 6.57353C10.4249 2.59232 15.9249 0.129883 22 0.129883C28.0751 0.129883 33.5751 2.59232 37.5563 6.57353C41.5376 10.5548 44 16.0548 44 22.1299Z" fill="#E5E5E5"/>
<path d="M21.2929 22.1299L6.44774 36.975C2.76239 33.1153 0.5 27.8873 0.5 22.1299C0.5 16.3725 2.76239 11.1444 6.44774 7.28472L21.2929 22.1299ZM37.5523 36.975L22.7071 22.1299L37.5523 7.28472C41.2376 11.1444 43.5 16.3725 43.5 22.1299C43.5 27.8873 41.2376 33.1153 37.5523 36.975ZM36.8452 6.57762L22 21.4228L7.15484 6.57762C11.0146 2.89227 16.2426 0.629883 22 0.629883C27.7574 0.629883 32.9854 2.89227 36.8452 6.57762ZM22 22.837L36.8452 37.6821C32.9854 41.3675 27.7574 43.6299 22 43.6299C16.2426 43.6299 11.0146 41.3675 7.15484 37.6821L22 22.837Z" stroke="black" stroke-opacity="0.3"/>
</svg>
