<svg width="38" height="31" viewBox="0 0 38 31" fill="none" xmlns="http://www.w3.org/2000/svg">
<g clip-path="url(#clip0_129_345)">
<path d="M31.8337 0.833252H6.16699C4.7083 0.833252 3.30936 1.41271 2.27791 2.44416C1.24646 3.47561 0.666992 4.87456 0.666992 6.33325V24.6666C0.666992 26.1253 1.24646 27.5242 2.27791 28.5557C3.30936 29.5871 4.7083 30.1666 6.16699 30.1666H31.8337C33.2924 30.1666 34.6913 29.5871 35.7228 28.5557C36.7542 27.5242 37.3337 26.1253 37.3337 24.6666V6.33325C37.3337 4.87456 36.7542 3.47561 35.7228 2.44416C34.6913 1.41271 33.2924 0.833252 31.8337 0.833252ZM31.8337 4.49992L19.917 12.6949C19.6383 12.8558 19.3221 12.9405 19.0003 12.9405C18.6785 12.9405 18.3624 12.8558 18.0837 12.6949L6.16699 4.49992H31.8337Z" fill="white"/>
</g>
<defs>
<clipPath id="clip0_129_345">
<rect width="38" height="30" fill="white" transform="translate(0 0.499878)"/>
</clipPath>
</defs>
</svg>
