<svg width="38" height="31" viewBox="0 0 38 31" fill="none" xmlns="http://www.w3.org/2000/svg">
<g clip-path="url(#clip0_129_605)">
<path d="M31.8337 0.416626H6.16699C4.7083 0.416626 3.30936 0.996089 2.27791 2.02754C1.24646 3.05899 0.666992 4.45793 0.666992 5.91662V24.25C0.666992 25.7086 1.24646 27.1076 2.27791 28.139C3.30936 29.1705 4.7083 29.7499 6.16699 29.7499H31.8337C33.2924 29.7499 34.6913 29.1705 35.7228 28.139C36.7542 27.1076 37.3337 25.7086 37.3337 24.25V5.91662C37.3337 4.45793 36.7542 3.05899 35.7228 2.02754C34.6913 0.996089 33.2924 0.416626 31.8337 0.416626ZM31.8337 4.08329L19.917 12.2783C19.6383 12.4392 19.3221 12.5239 19.0003 12.5239C18.6785 12.5239 18.3624 12.4392 18.0837 12.2783L6.16699 4.08329H31.8337Z" fill="white"/>
</g>
<defs>
<clipPath id="clip0_129_605">
<rect width="38" height="30" fill="white" transform="translate(0 0.083252)"/>
</clipPath>
</defs>
</svg>
