<svg width="25" height="21" viewBox="0 0 25 21" fill="none" xmlns="http://www.w3.org/2000/svg">
<g clip-path="url(#clip0_129_294)">
<path d="M20.9429 0.85083H4.0569C3.09723 0.85083 2.17687 1.23206 1.49829 1.91064C0.819702 2.58923 0.438477 3.50958 0.438477 4.46925V16.5306C0.438477 17.4903 0.819702 18.4107 1.49829 19.0893C2.17687 19.7678 3.09723 20.1491 4.0569 20.1491H20.9429C21.9025 20.1491 22.8229 19.7678 23.5015 19.0893C24.1801 18.4107 24.5613 17.4903 24.5613 16.5306V4.46925C24.5613 3.50958 24.1801 2.58923 23.5015 1.91064C22.8229 1.23206 21.9025 0.85083 20.9429 0.85083ZM20.9429 3.26311L13.103 8.65455C12.9196 8.76041 12.7116 8.81614 12.4999 8.81614C12.2882 8.81614 12.0802 8.76041 11.8968 8.65455L4.0569 3.26311H20.9429Z" fill="white"/>
</g>
<defs>
<clipPath id="clip0_129_294">
<rect width="25" height="19.7368" fill="white" transform="translate(0 0.631592)"/>
</clipPath>
</defs>
</svg>
