<svg width="38" height="31" viewBox="0 0 38 31" fill="none" xmlns="http://www.w3.org/2000/svg">
<g clip-path="url(#clip0_485_4054)">
<path d="M31.8337 0.361084H6.16699C4.7083 0.361084 3.30936 0.940547 2.27791 1.972C1.24646 3.00345 0.666992 4.40239 0.666992 5.86108V24.1944C0.666992 25.6531 1.24646 27.052 2.27791 28.0835C3.30936 29.1149 4.7083 29.6944 6.16699 29.6944H31.8337C33.2924 29.6944 34.6913 29.1149 35.7228 28.0835C36.7542 27.052 37.3337 25.6531 37.3337 24.1944V5.86108C37.3337 4.40239 36.7542 3.00345 35.7228 1.972C34.6913 0.940547 33.2924 0.361084 31.8337 0.361084ZM31.8337 4.02775L19.917 12.2227C19.6383 12.3837 19.3221 12.4684 19.0003 12.4684C18.6785 12.4684 18.3624 12.3837 18.0837 12.2227L6.16699 4.02775H31.8337Z" fill="white"/>
</g>
<defs>
<clipPath id="clip0_485_4054">
<rect width="38" height="30" fill="white" transform="translate(0 0.027832)"/>
</clipPath>
</defs>
</svg>
