<svg width="22" height="23" viewBox="0 0 22 23" fill="none" xmlns="http://www.w3.org/2000/svg">
<path d="M4.63194 1L1.5 5.1V19.45C1.5 19.9937 1.71998 20.5151 2.11155 20.8996C2.50312 21.284 3.0342 21.5 3.58796 21.5H18.2037C18.7575 21.5 19.2885 21.284 19.6801 20.8996C20.0717 20.5151 20.2917 19.9937 20.2917 19.45V5.1L17.1597 1H4.63194Z" stroke="#18A0FB" stroke-width="2" stroke-linecap="round" stroke-linejoin="round"/>
<path d="M1.5 4.41663H20.2917" stroke="#18A0FB" stroke-width="2" stroke-linecap="round" stroke-linejoin="round"/>
<path d="M15.1667 9.54163C15.1667 10.4478 14.7167 11.3168 13.9158 11.9576C13.1148 12.5983 12.0285 12.9583 10.8958 12.9583C9.76314 12.9583 8.67683 12.5983 7.8759 11.9576C7.07496 11.3168 6.625 10.4478 6.625 9.54163" stroke="#18A0FB" stroke-width="2" stroke-linecap="round" stroke-linejoin="round"/>
</svg>
