<svg width="48" height="49" viewBox="0 0 48 49" fill="none" xmlns="http://www.w3.org/2000/svg">
<path d="M0 24.5278C0 11.273 10.7452 0.527832 24 0.527832C37.2548 0.527832 48 11.273 48 24.5278C48 37.7827 37.2548 48.5278 24 48.5278C10.7452 48.5278 0 37.7827 0 24.5278Z" fill="white"/>
<path d="M23.9997 18.1491C25.9525 18.1491 27.2699 18.9927 28.021 19.6976L30.9561 16.8318C29.1534 15.1563 26.8077 14.1278 23.9997 14.1278C19.9321 14.1278 16.4192 16.462 14.709 19.8594L18.0717 22.4709C18.9152 19.9634 21.2494 18.1491 23.9997 18.1491Z" fill="#EA4335"/>
<path d="M33.984 24.7589C33.984 23.9038 33.9147 23.2798 33.7644 22.6327H24V26.4922H29.7316C29.616 27.4514 28.992 28.8958 27.6053 29.8665L30.8871 32.4087C32.8516 30.5945 33.984 27.9251 33.984 24.7589Z" fill="#4285F4"/>
<path d="M18.0832 26.5847C17.8636 25.9376 17.7365 25.2443 17.7365 24.5278C17.7365 23.8114 17.8636 23.118 18.0716 22.4709L14.7089 19.8594C14.0041 21.2692 13.5996 22.8523 13.5996 24.5278C13.5996 26.2034 14.0041 27.7865 14.7089 29.1963L18.0832 26.5847Z" fill="#FBBC05"/>
<path d="M23.9998 34.9278C26.8078 34.9278 29.1651 34.0034 30.8869 32.4087L27.6051 29.8665C26.7269 30.4789 25.5483 30.9065 23.9998 30.9065C21.2496 30.9065 18.9154 29.0923 18.0834 26.5847L14.7207 29.1963C16.4309 32.5936 19.9323 34.9278 23.9998 34.9278Z" fill="#34A853"/>
</svg>
