<svg width="16" height="16" viewBox="0 0 16 16" fill="none" xmlns="http://www.w3.org/2000/svg">
<path fill-rule="evenodd" clip-rule="evenodd" d="M7.33312 2.12669C7.37917 1.98066 7.47057 1.85312 7.59406 1.76258C7.71754 1.67204 7.86667 1.62323 8.01979 1.62323C8.1729 1.62323 8.32203 1.67204 8.44552 1.76258C8.569 1.85312 8.6604 1.98066 8.70645 2.12669L9.94645 5.94002H13.9465C14.105 5.93403 14.2612 5.98012 14.3912 6.07125C14.5211 6.16238 14.6176 6.29355 14.666 6.4447C14.7144 6.59586 14.7119 6.75869 14.659 6.90833C14.6062 7.05796 14.5057 7.18617 14.3731 7.27336L11.1265 9.62669L12.3665 13.4467C12.4155 13.5922 12.4167 13.7496 12.37 13.8958C12.3232 14.0421 12.2309 14.1696 12.1066 14.2597C11.9823 14.3498 11.8324 14.3978 11.6788 14.3966C11.5253 14.3955 11.3761 14.3453 11.2531 14.2534L7.99979 11.8734L4.75312 14.2334C4.63012 14.3253 4.48096 14.3755 4.32741 14.3766C4.17387 14.3778 4.02398 14.3298 3.89963 14.2397C3.77529 14.1496 3.68301 14.0221 3.63626 13.8758C3.58951 13.7296 3.59075 13.5722 3.63979 13.4267L4.87979 9.60669L1.63312 7.25336C1.50051 7.16617 1.40009 7.03796 1.3472 6.88833C1.29431 6.73869 1.29187 6.57586 1.34024 6.4247C1.38861 6.27355 1.48513 6.14238 1.61506 6.05125C1.745 5.96012 1.90119 5.91403 2.05979 5.92002H6.05979L7.33312 2.12669Z" stroke="#D1D1D1" stroke-linecap="round" stroke-linejoin="round"/>
</svg>
