<svg width="16" height="16" viewBox="0 0 16 16" fill="none" xmlns="http://www.w3.org/2000/svg">
<path fill-rule="evenodd" clip-rule="evenodd" d="M7.33361 2.12675C7.37966 1.98072 7.47106 1.85318 7.59454 1.76264C7.71803 1.6721 7.86716 1.62329 8.02027 1.62329C8.17339 1.62329 8.32252 1.6721 8.446 1.76264C8.56949 1.85318 8.66089 1.98072 8.70694 2.12675L9.94694 5.94009H13.9469C14.1055 5.93409 14.2617 5.98018 14.3917 6.07131C14.5216 6.16244 14.6181 6.29361 14.6665 6.44476C14.7149 6.59592 14.7124 6.75875 14.6595 6.90839C14.6066 7.05802 14.5062 7.18623 14.3736 7.27342L11.1269 9.62675L12.3669 13.4468C12.416 13.5923 12.4172 13.7496 12.3705 13.8959C12.3237 14.0422 12.2314 14.1697 12.1071 14.2597C11.9827 14.3498 11.8329 14.3978 11.6793 14.3967C11.5258 14.3955 11.3766 14.3453 11.2536 14.2534L8.00027 11.8734L4.75361 14.2334C4.63061 14.3253 4.48145 14.3755 4.3279 14.3767C4.17436 14.3778 4.02447 14.3298 3.90012 14.2397C3.77578 14.1496 3.68349 14.0222 3.63675 13.8759C3.59 13.7296 3.59123 13.5723 3.64027 13.4268L4.88027 9.60675L1.63361 7.25342C1.501 7.16623 1.40057 7.03802 1.34769 6.88839C1.2948 6.73875 1.29235 6.57592 1.34072 6.42476C1.38909 6.27361 1.48562 6.14244 1.61555 6.05131C1.74549 5.96018 1.90168 5.91409 2.06027 5.92009H6.06027L7.33361 2.12675Z" stroke="#D1D1D1" stroke-linecap="round" stroke-linejoin="round"/>
</svg>
