<svg width="20" height="20" viewBox="0 0 20 20" fill="none" xmlns="http://www.w3.org/2000/svg">
<path fill-rule="evenodd" clip-rule="evenodd" d="M9.16664 2.65814C9.2242 2.4756 9.33846 2.31617 9.49281 2.203C9.64717 2.08983 9.83358 2.02881 10.025 2.02881C10.2164 2.02881 10.4028 2.08983 10.5571 2.203C10.7115 2.31617 10.8257 2.4756 10.8833 2.65814L12.4333 7.4248H17.4333C17.6315 7.41731 17.8268 7.47492 17.9892 7.58883C18.1516 7.70275 18.2723 7.8667 18.3327 8.05565C18.3932 8.24459 18.3902 8.44814 18.324 8.63518C18.2579 8.82222 18.1324 8.98248 17.9666 9.09147L13.9083 12.0331L15.4583 16.8081C15.5196 16.99 15.5212 17.1867 15.4627 17.3696C15.4043 17.5524 15.2889 17.7118 15.1335 17.8244C14.9781 17.937 14.7907 17.997 14.5988 17.9955C14.4068 17.9941 14.2204 17.9314 14.0666 17.8165L9.99998 14.8415L5.94164 17.7915C5.7879 17.9064 5.60145 17.9691 5.40951 17.9705C5.21758 17.972 5.03022 17.912 4.87479 17.7994C4.71936 17.6868 4.604 17.5274 4.54557 17.3446C4.48713 17.1617 4.48868 16.965 4.54998 16.7831L6.09998 12.0081L2.04164 9.06647C1.87588 8.95748 1.75035 8.79722 1.68424 8.61018C1.61813 8.42314 1.61508 8.21959 1.67554 8.03065C1.736 7.8417 1.85666 7.67775 2.01907 7.56383C2.18149 7.44992 2.37673 7.39231 2.57498 7.3998H7.57498L9.16664 2.65814Z" fill="#FDBC15"/>
</svg>
