<svg width="16" height="17" viewBox="0 0 16 17" fill="none" xmlns="http://www.w3.org/2000/svg">
<path fill-rule="evenodd" clip-rule="evenodd" d="M8.8733 3.76023C9.50982 3.12371 10.3731 2.76611 11.2733 2.76611C12.1735 2.76611 13.0368 3.12371 13.6733 3.76023C14.3098 4.39675 14.6674 5.26005 14.6674 6.16023C14.6674 7.0604 14.3098 7.92371 13.6733 8.56022L12.8 9.43356L7.99997 14.2336L3.19997 9.43356L2.32663 8.56022C1.69011 7.92371 1.33252 7.0604 1.33252 6.16023C1.33252 5.26005 1.69011 4.39675 2.32663 3.76023C2.96315 3.12371 3.82646 2.76611 4.72663 2.76611C5.62681 2.76611 6.49011 3.12371 7.12663 3.76023L7.99997 4.63356L8.8733 3.76023Z" stroke="#E6704B" stroke-width="2" stroke-linecap="round" stroke-linejoin="round"/>
</svg>
