<svg width="16" height="16" viewBox="0 0 16 16" fill="none" xmlns="http://www.w3.org/2000/svg">
<path fill-rule="evenodd" clip-rule="evenodd" d="M7.33312 2.12675C7.37917 1.98072 7.47057 1.85318 7.59406 1.76264C7.71754 1.6721 7.86667 1.62329 8.01979 1.62329C8.1729 1.62329 8.32203 1.6721 8.44552 1.76264C8.569 1.85318 8.6604 1.98072 8.70645 2.12675L9.94645 5.94009H13.9465C14.105 5.93409 14.2612 5.98018 14.3912 6.07131C14.5211 6.16244 14.6176 6.29361 14.666 6.44476C14.7144 6.59592 14.7119 6.75875 14.659 6.90839C14.6062 7.05802 14.5057 7.18623 14.3731 7.27342L11.1265 9.62675L12.3665 13.4468C12.4155 13.5923 12.4167 13.7496 12.37 13.8959C12.3232 14.0422 12.2309 14.1697 12.1066 14.2597C11.9823 14.3498 11.8324 14.3978 11.6788 14.3967C11.5253 14.3955 11.3761 14.3453 11.2531 14.2534L7.99979 11.8734L4.75312 14.2334C4.63012 14.3253 4.48096 14.3755 4.32741 14.3767C4.17387 14.3778 4.02398 14.3298 3.89963 14.2397C3.77529 14.1496 3.68301 14.0222 3.63626 13.8759C3.58951 13.7296 3.59075 13.5723 3.63979 13.4268L4.87979 9.60675L1.63312 7.25342C1.50051 7.16623 1.40009 7.03802 1.3472 6.88839C1.29431 6.73875 1.29187 6.57592 1.34024 6.42476C1.38861 6.27361 1.48513 6.14244 1.61506 6.05131C1.745 5.96018 1.90119 5.91409 2.05979 5.92009H6.05979L7.33312 2.12675Z" stroke="#D1D1D1" stroke-linecap="round" stroke-linejoin="round"/>
</svg>
