<svg width="16" height="16" viewBox="0 0 16 16" fill="none" xmlns="http://www.w3.org/2000/svg">
<path fill-rule="evenodd" clip-rule="evenodd" d="M7.33312 2.12666C7.37917 1.98063 7.47057 1.85309 7.59406 1.76255C7.71754 1.67201 7.86667 1.6232 8.01979 1.6232C8.1729 1.6232 8.32203 1.67201 8.44552 1.76255C8.569 1.85309 8.6604 1.98063 8.70645 2.12666L9.94645 5.93999H13.9465C14.105 5.934 14.2612 5.98009 14.3912 6.07122C14.5211 6.16235 14.6176 6.29352 14.666 6.44467C14.7144 6.59583 14.7119 6.75866 14.659 6.9083C14.6062 7.05793 14.5057 7.18614 14.3731 7.27333L11.1265 9.62666L12.3665 13.4467C12.4155 13.5922 12.4167 13.7495 12.37 13.8958C12.3232 14.0421 12.2309 14.1696 12.1066 14.2597C11.9823 14.3497 11.8324 14.3977 11.6788 14.3966C11.5253 14.3955 11.3761 14.3453 11.2531 14.2533L7.99979 11.8733L4.75312 14.2333C4.63012 14.3253 4.48096 14.3754 4.32741 14.3766C4.17387 14.3777 4.02398 14.3297 3.89963 14.2397C3.77529 14.1496 3.68301 14.0221 3.63626 13.8758C3.58951 13.7295 3.59075 13.5722 3.63979 13.4267L4.87979 9.60666L1.63312 7.25333C1.50051 7.16614 1.40009 7.03793 1.3472 6.8883C1.29431 6.73866 1.29187 6.57583 1.34024 6.42467C1.38861 6.27352 1.48513 6.14235 1.61506 6.05122C1.745 5.96009 1.90119 5.914 2.05979 5.91999H6.05979L7.33312 2.12666Z" fill="#FDBC15"/>
</svg>
