<svg width="16" height="16" viewBox="0 0 16 16" fill="none" xmlns="http://www.w3.org/2000/svg">
<path d="M11.187 5.80007L8.447 3.06007C8.32209 2.93591 8.15312 2.86621 7.977 2.86621C7.80088 2.86621 7.63191 2.93591 7.507 3.06007L4.84033 5.72674" fill="white"/>
<path d="M11.187 5.80007L8.447 3.06007C8.32209 2.93591 8.15312 2.86621 7.977 2.86621C7.80088 2.86621 7.63191 2.93591 7.507 3.06007L4.84033 5.72674" stroke="white" stroke-width="1.5" stroke-linecap="round" stroke-linejoin="bevel"/>
<path d="M4.81348 10.2L7.55348 12.94C7.67838 13.0641 7.84735 13.1338 8.02348 13.1338C8.1996 13.1338 8.36857 13.0641 8.49348 12.94L11.1601 10.2733" fill="white"/>
<path d="M4.81348 10.2L7.55348 12.94C7.67838 13.0641 7.84735 13.1338 8.02348 13.1338C8.1996 13.1338 8.36857 13.0641 8.49348 12.94L11.1601 10.2733" stroke="white" stroke-width="1.5" stroke-linecap="round" stroke-linejoin="bevel"/>
</svg>
