<svg width="16" height="17" viewBox="0 0 16 17" fill="none" xmlns="http://www.w3.org/2000/svg">
<g clip-path="url(#clip0_455_2215)">
<path d="M6.3335 1.8335H3.66683C2.93045 1.8335 2.3335 2.43045 2.3335 3.16683V5.8335C2.3335 6.56988 2.93045 7.16683 3.66683 7.16683H6.3335C7.06988 7.16683 7.66683 6.56988 7.66683 5.8335V3.16683C7.66683 2.43045 7.06988 1.8335 6.3335 1.8335Z" stroke="#E6704B" stroke-width="2" stroke-linecap="round" stroke-linejoin="round"/>
<path d="M6.3335 9.8335H3.66683C2.93045 9.8335 2.3335 10.4304 2.3335 11.1668V13.8335C2.3335 14.5699 2.93045 15.1668 3.66683 15.1668H6.3335C7.06988 15.1668 7.66683 14.5699 7.66683 13.8335V11.1668C7.66683 10.4304 7.06988 9.8335 6.3335 9.8335Z" stroke="#E6704B" stroke-width="2" stroke-linecap="round" stroke-linejoin="round"/>
<path d="M13.667 11.167H9.66699" stroke="#E6704B" stroke-width="2" stroke-linecap="round" stroke-linejoin="round"/>
<path d="M12.3337 13.8335H9.66699" stroke="#E6704B" stroke-width="2" stroke-linecap="round" stroke-linejoin="round"/>
<path d="M12.3337 5.8335H9.66699" stroke="#E6704B" stroke-width="2" stroke-linecap="round" stroke-linejoin="round"/>
<path d="M13.667 3.16699H9.66699" stroke="#E6704B" stroke-width="2" stroke-linecap="round" stroke-linejoin="round"/>
</g>
<defs>
<clipPath id="clip0_455_2215">
<rect width="16" height="16" fill="white" transform="translate(0 0.5)"/>
</clipPath>
</defs>
</svg>
