<svg width="42" height="41" viewBox="0 0 42 41" fill="none" xmlns="http://www.w3.org/2000/svg">
<rect x="0.5" width="41" height="41" rx="16" fill="white"/>
<path d="M34.6666 35.8751V32.4585C34.6666 30.6461 33.9466 28.9081 32.6651 27.6266C31.3836 26.3451 29.6456 25.6251 27.8333 25.6251H14.1666C12.3543 25.6251 10.6162 26.3451 9.33469 27.6266C8.05319 28.9081 7.33325 30.6461 7.33325 32.4585V35.8751" stroke="#18A0FB" stroke-width="1.99832" stroke-linecap="round" stroke-linejoin="round"/>
<path d="M21.0001 18.7918C24.774 18.7918 27.8334 15.7324 27.8334 11.9585C27.8334 8.18451 24.774 5.12512 21.0001 5.12512C17.2261 5.12512 14.1667 8.18451 14.1667 11.9585C14.1667 15.7324 17.2261 18.7918 21.0001 18.7918Z" stroke="#18A0FB" stroke-width="1.99832" stroke-linecap="round" stroke-linejoin="round"/>
</svg>
