<svg width="42" height="41" viewBox="0 0 42 41" fill="none" xmlns="http://www.w3.org/2000/svg">
<rect x="0.5" width="41" height="41" rx="16" fill="white"/>
<path d="M34.6668 35.8752V32.4586C34.6668 30.6463 33.9469 28.9082 32.6654 27.6267C31.3839 26.3452 29.6458 25.6252 27.8335 25.6252H14.1668C12.3545 25.6252 10.6164 26.3452 9.33493 27.6267C8.05343 28.9082 7.3335 30.6463 7.3335 32.4586V35.8752" stroke="#18A0FB" stroke-width="1.99832" stroke-linecap="round" stroke-linejoin="round"/>
<path d="M20.9998 18.7919C24.7738 18.7919 27.8332 15.7325 27.8332 11.9586C27.8332 8.18463 24.7738 5.12524 20.9998 5.12524C17.2259 5.12524 14.1665 8.18463 14.1665 11.9586C14.1665 15.7325 17.2259 18.7919 20.9998 18.7919Z" stroke="#18A0FB" stroke-width="1.99832" stroke-linecap="round" stroke-linejoin="round"/>
</svg>
