<svg width="42" height="41" viewBox="0 0 42 41" fill="none" xmlns="http://www.w3.org/2000/svg">
<rect x="0.5" width="41" height="41" rx="16" fill="white"/>
<path d="M34.6663 35.8751V32.4585C34.6663 30.6461 33.9464 28.9081 32.6649 27.6266C31.3834 26.3451 29.6453 25.6251 27.833 25.6251H14.1663C12.354 25.6251 10.6159 26.3451 9.33444 27.6266C8.05295 28.9081 7.33301 30.6461 7.33301 32.4585V35.8751" stroke="#18A0FB" stroke-width="1.99832" stroke-linecap="round" stroke-linejoin="round"/>
<path d="M21.0003 18.7918C24.7743 18.7918 27.8337 15.7324 27.8337 11.9585C27.8337 8.18451 24.7743 5.12512 21.0003 5.12512C17.2264 5.12512 14.167 8.18451 14.167 11.9585C14.167 15.7324 17.2264 18.7918 21.0003 18.7918Z" stroke="#18A0FB" stroke-width="1.99832" stroke-linecap="round" stroke-linejoin="round"/>
</svg>
