<svg width="42" height="41" viewBox="0 0 42 41" fill="none" xmlns="http://www.w3.org/2000/svg">
<rect x="0.5" width="41" height="41" rx="16" fill="white"/>
<path d="M34.6666 35.875V32.4583C34.6666 30.646 33.9466 28.9079 32.6651 27.6264C31.3836 26.3449 29.6456 25.625 27.8333 25.625H14.1666C12.3543 25.625 10.6162 26.3449 9.33469 27.6264C8.05319 28.9079 7.33325 30.646 7.33325 32.4583V35.875" stroke="#18A0FB" stroke-width="1.99832" stroke-linecap="round" stroke-linejoin="round"/>
<path d="M21.0001 18.7917C24.774 18.7917 27.8334 15.7323 27.8334 11.9583C27.8334 8.18439 24.774 5.125 21.0001 5.125C17.2261 5.125 14.1667 8.18439 14.1667 11.9583C14.1667 15.7323 17.2261 18.7917 21.0001 18.7917Z" stroke="#18A0FB" stroke-width="1.99832" stroke-linecap="round" stroke-linejoin="round"/>
</svg>
