<svg width="42" height="41" viewBox="0 0 42 41" fill="none" xmlns="http://www.w3.org/2000/svg">
<rect x="0.5" width="41" height="41" rx="16" fill="white"/>
<path d="M34.6668 35.875V32.4583C34.6668 30.646 33.9469 28.9079 32.6654 27.6264C31.3839 26.3449 29.6458 25.625 27.8335 25.625H14.1668C12.3545 25.625 10.6164 26.3449 9.33493 27.6264C8.05343 28.9079 7.3335 30.646 7.3335 32.4583V35.875" stroke="#18A0FB" stroke-width="1.99832" stroke-linecap="round" stroke-linejoin="round"/>
<path d="M20.9998 18.7917C24.7738 18.7917 27.8332 15.7323 27.8332 11.9583C27.8332 8.18439 24.7738 5.125 20.9998 5.125C17.2259 5.125 14.1665 8.18439 14.1665 11.9583C14.1665 15.7323 17.2259 18.7917 20.9998 18.7917Z" stroke="#18A0FB" stroke-width="1.99832" stroke-linecap="round" stroke-linejoin="round"/>
</svg>
