<svg width="85" height="61" viewBox="0 0 85 61" fill="none" xmlns="http://www.w3.org/2000/svg">
<path d="M69.2167 10.9497H16.2834C12.6015 10.9497 9.6167 13.9345 9.6167 17.6164V51.083C9.6167 54.7649 12.6015 57.7497 16.2834 57.7497H69.2167C72.8986 57.7497 75.8834 54.7649 75.8834 51.083V17.6164C75.8834 13.9345 72.8986 10.9497 69.2167 10.9497Z" stroke="white" stroke-width="2.5" stroke-linecap="round" stroke-linejoin="round"/>
<line x1="2.29683" y1="58.7004" x2="82.2004" y2="12.4532" stroke="white" stroke-width="3" stroke-linecap="round"/>
<path d="M44.0499 43.9168C49.8673 43.9168 54.5833 39.2008 54.5833 33.3834C54.5833 27.566 49.8673 22.8501 44.0499 22.8501C38.2325 22.8501 33.5166 27.566 33.5166 33.3834C33.5166 39.2008 38.2325 43.9168 44.0499 43.9168Z" stroke="white" stroke-width="2.5" stroke-linecap="round" stroke-linejoin="round"/>
<path d="M64.2508 25.5831C65.4658 25.5831 66.4508 24.5981 66.4508 23.3831C66.4508 22.1681 65.4658 21.1831 64.2508 21.1831C63.0358 21.1831 62.0508 22.1681 62.0508 23.3831C62.0508 24.5981 63.0358 25.5831 64.2508 25.5831Z" stroke="white" stroke-width="2.5" stroke-linecap="round" stroke-linejoin="round"/>
<path d="M17.7505 1.25H30.8172" stroke="white" stroke-width="2.5" stroke-linecap="round" stroke-linejoin="round"/>
</svg>
