<svg width="127" height="127" viewBox="0 0 127 127" fill="none" xmlns="http://www.w3.org/2000/svg">
<path fill-rule="evenodd" clip-rule="evenodd" d="M52.1945 54.9757L58.3944 54.4282L64.5028 53.8807L58.7588 61.9043L58.3938 61.5393L52.1945 54.9757V54.9757ZM58.3944 47.4087C41.0716 48.594 33.8689 44.4003 51.1008 34.599L4.1014 46.0863C4.1014 46.0863 19.19 48.7758 28.3074 51.3289C37.4248 53.8814 50.3708 60.2638 54.2001 72.7993H66.3258C66.3258 50.9639 94.9541 45.7213 103.706 43.3507L121.668 39.1571L125.132 33.4131C125.132 33.4131 96.9591 40.7976 79.2719 44.3535C71.4775 45.9954 64.3202 47.0437 58.3944 47.4087V47.4087ZM36.6493 72.07C33.9143 72.07 32.0451 73.5293 30.5864 75.3524L28.8088 77.4951V72.07H22.655C19.9201 72.07 18.0054 73.5293 16.5467 75.3524L1.86719 93.4956H10.6202L22.1081 79.5461C23.8858 77.1755 24.7976 77.5399 25.892 77.5399H28.8095L15.9089 93.4956H24.6151L36.1031 79.5461C37.9268 77.1755 38.838 77.5399 39.9324 77.5399H42.8498L29.7207 93.4956H39.294C41.5275 93.4956 42.8498 91.855 42.8498 89.9851V72.07H36.6493V72.07ZM118.887 91.3529C119.069 91.3529 119.206 91.3081 119.206 91.0788C119.206 90.8977 119.024 90.8509 118.841 90.8509H118.477V91.3529H118.887ZM118.841 90.4872C119.388 90.4872 119.707 90.6236 119.707 91.1256C119.707 91.5361 119.479 91.6725 119.16 91.7173L119.753 92.6298H119.206L118.841 91.9914L118.704 91.7173H118.476V92.6298H118.02V90.4872H118.841V90.4872ZM118.841 93.5871H118.796C117.748 93.5871 116.79 92.8578 116.79 91.5809C116.79 90.304 117.748 89.5299 118.796 89.5299H118.841C119.89 89.5747 120.847 90.3047 120.847 91.5809C120.847 92.8123 119.89 93.5871 118.841 93.5871ZM118.841 90.0313C119.616 90.0313 120.255 90.6697 120.255 91.5809C120.255 92.4934 119.616 93.0851 118.841 93.1319H118.796C118.02 93.1319 117.337 92.4934 117.337 91.5809C117.337 90.6236 118.02 90.0313 118.796 90.0313H118.841ZM106.532 90.1228H107.855C108.585 90.1228 109.041 89.5747 109.041 88.5719V82.4635C109.041 81.4146 108.585 80.9139 107.855 80.9139H105.257C104.527 80.9139 104.071 81.4146 104.071 82.4635V88.5719C104.071 89.574 104.527 90.1228 105.257 90.1228H106.532V90.1228ZM106.532 77.5405H111.775C113.417 77.5405 114.875 78.7258 114.875 80.3677V90.6704C114.875 92.3109 113.417 93.4962 111.775 93.4962H101.336C99.6485 93.4962 98.2359 92.3109 98.2359 90.6704V80.3677C98.2359 78.7258 99.6492 77.5405 101.336 77.5405H106.532ZM60.172 90.1683H67.3754V93.4962H53.5623V90.1683C53.5623 89.1662 53.9728 88.6187 54.4742 88.1173L60.5825 80.8684H53.2889V77.5405H67.1013V80.8684C67.1013 81.8719 66.6908 82.4194 66.1901 82.9208L60.172 90.1683ZM92.8576 77.5405H79.5466V88.5725C79.5466 89.4851 78.9549 90.1235 78.3165 90.1235H75.9914C75.262 90.1235 74.8061 89.5753 74.8061 88.5725V77.5405H68.9718V90.6704C68.9718 92.3109 70.4299 93.4962 72.0705 93.4962H82.2829C83.9234 93.4962 85.3815 92.3109 85.3815 90.6704V82.4635C85.3815 81.5062 86.0199 80.9139 86.6129 80.9139H88.938C89.6661 80.9139 90.1233 81.4146 90.1233 82.4635V93.4956H95.9576V80.367C95.9576 78.7251 94.4982 77.5405 92.8576 77.5405V77.5405ZM48.2743 93.4956H45.5393V77.5399H51.3742V90.6697C51.3742 92.3103 49.9155 93.4956 48.2743 93.4956Z" fill="white"/>
</svg>
