<svg width="44" height="45" viewBox="0 0 44 45" fill="none" xmlns="http://www.w3.org/2000/svg">
<path d="M12.106 29.6575C11.9341 29.4857 11.7009 29.3891 11.4579 29.3891C11.2148 29.3891 10.9817 29.4857 10.8098 29.6575L9.62455 30.8428L8.4393 29.6575C8.35474 29.57 8.25359 29.5001 8.14175 29.4521C8.02991 29.4041 7.90963 29.3788 7.78791 29.3777C7.6662 29.3767 7.54549 29.3999 7.43284 29.4459C7.32018 29.492 7.21783 29.5601 7.13177 29.6462C7.0457 29.7322 6.97763 29.8346 6.93154 29.9472C6.88545 30.0599 6.86226 30.1806 6.86332 30.3023C6.86437 30.424 6.88966 30.5443 6.9377 30.6562C6.98574 30.768 7.05558 30.8691 7.14313 30.9537L8.32838 32.1389L7.14313 33.3242C7.05558 33.4088 6.98574 33.5099 6.9377 33.6217C6.88966 33.7336 6.86437 33.8539 6.86332 33.9756C6.86226 34.0973 6.88545 34.218 6.93154 34.3307C6.97763 34.4433 7.0457 34.5457 7.13177 34.6317C7.21783 34.7178 7.32018 34.7859 7.43284 34.8319C7.54549 34.878 7.6662 34.9012 7.78791 34.9002C7.90963 34.8991 8.02991 34.8738 8.14175 34.8258C8.25359 34.7777 8.35474 34.7079 8.4393 34.6204L9.62455 33.4351L10.8098 34.6204C10.9827 34.7873 11.2142 34.8797 11.4546 34.8776C11.6949 34.8756 11.9248 34.7792 12.0948 34.6092C12.2648 34.4392 12.3612 34.2093 12.3632 33.969C12.3653 33.7286 12.2729 33.4971 12.106 33.3242L10.9207 32.1389L12.106 30.9537C12.2778 30.7818 12.3743 30.5487 12.3743 30.3056C12.3743 30.0625 12.2778 29.8294 12.106 29.6575ZM20.356 29.6575C20.1841 29.4857 19.9509 29.3891 19.7079 29.3891C19.4648 29.3891 19.2317 29.4857 19.0598 29.6575L17.8745 30.8428L16.6893 29.6575C16.5164 29.4906 16.2849 29.3982 16.0445 29.4002C15.8042 29.4023 15.5743 29.4987 15.4043 29.6687C15.2343 29.8387 15.1379 30.0686 15.1358 30.3089C15.1338 30.5493 15.2262 30.7808 15.3931 30.9537L16.5784 32.1389L15.3931 33.3242C15.3056 33.4088 15.2357 33.5099 15.1877 33.6217C15.1397 33.7336 15.1144 33.8539 15.1133 33.9756C15.1123 34.0973 15.1355 34.218 15.1815 34.3307C15.2276 34.4433 15.2957 34.5457 15.3818 34.6317C15.4678 34.7178 15.5702 34.7859 15.6828 34.8319C15.7955 34.878 15.9162 34.9012 16.0379 34.9002C16.1596 34.8991 16.2799 34.8738 16.3917 34.8258C16.5036 34.7777 16.6047 34.7079 16.6893 34.6204L17.8745 33.4351L19.0598 34.6204C19.2327 34.7873 19.4642 34.8797 19.7046 34.8776C19.9449 34.8756 20.1748 34.7792 20.3448 34.6092C20.5148 34.4392 20.6112 34.2093 20.6132 33.969C20.6153 33.7286 20.5229 33.4971 20.356 33.3242L19.1707 32.1389L20.356 30.9537C20.5278 30.7818 20.6243 30.5487 20.6243 30.3056C20.6243 30.0625 20.5278 29.8294 20.356 29.6575ZM28.606 29.6575C28.4341 29.4857 28.2009 29.3891 27.9579 29.3891C27.7148 29.3891 27.4817 29.4857 27.3098 29.6575L26.1245 30.8428L24.9393 29.6575C24.7664 29.4906 24.5349 29.3982 24.2945 29.4002C24.0542 29.4023 23.8243 29.4987 23.6543 29.6687C23.4843 29.8387 23.3879 30.0686 23.3858 30.3089C23.3838 30.5493 23.4762 30.7808 23.6431 30.9537L24.8284 32.1389L23.6431 33.3242C23.5556 33.4088 23.4857 33.5099 23.4377 33.6217C23.3897 33.7336 23.3644 33.8539 23.3633 33.9756C23.3623 34.0973 23.3855 34.218 23.4315 34.3307C23.4776 34.4433 23.5457 34.5457 23.6318 34.6317C23.7178 34.7178 23.8202 34.7859 23.9328 34.8319C24.0455 34.878 24.1662 34.9012 24.2879 34.9002C24.4096 34.8991 24.5299 34.8738 24.6418 34.8258C24.7536 34.7777 24.8547 34.7079 24.9393 34.6204L26.1245 33.4351L27.3098 34.6204C27.4827 34.7873 27.7142 34.8797 27.9546 34.8776C28.1949 34.8756 28.4248 34.7792 28.5948 34.6092C28.7648 34.4392 28.8612 34.2093 28.8632 33.969C28.8653 33.7286 28.7729 33.4971 28.606 33.3242L27.4207 32.1389L28.606 30.9537C28.7778 30.7818 28.8744 30.5487 28.8744 30.3056C28.8744 30.0625 28.7778 29.8294 28.606 29.6575ZM35.6707 32.1389L36.856 30.9537C37.0229 30.7808 37.1153 30.5493 37.1132 30.3089C37.1112 30.0686 37.0148 29.8387 36.8448 29.6687C36.6748 29.4987 36.4449 29.4023 36.2046 29.4002C35.9642 29.3982 35.7327 29.4906 35.5598 29.6575L34.3745 30.8428L33.1893 29.6575C33.0164 29.4906 32.7849 29.3982 32.5445 29.4002C32.3042 29.4023 32.0743 29.4987 31.9043 29.6687C31.7343 29.8387 31.6379 30.0686 31.6358 30.3089C31.6338 30.5493 31.7262 30.7808 31.8931 30.9537L33.0784 32.1389L31.8931 33.3242C31.8056 33.4088 31.7357 33.5099 31.6877 33.6217C31.6397 33.7336 31.6144 33.8539 31.6133 33.9756C31.6123 34.0973 31.6355 34.218 31.6815 34.3307C31.7276 34.4433 31.7957 34.5457 31.8818 34.6317C31.9678 34.7178 32.0702 34.7859 32.1828 34.8319C32.2955 34.878 32.4162 34.9012 32.5379 34.9002C32.6596 34.8991 32.7799 34.8738 32.8918 34.8258C33.0036 34.7777 33.1047 34.7079 33.1893 34.6204L34.3745 33.4351L35.5598 34.6204C35.7327 34.7873 35.9642 34.8797 36.2046 34.8776C36.4449 34.8756 36.6748 34.7792 36.8448 34.6092C37.0148 34.4392 37.1112 34.2093 37.1132 33.969C37.1153 33.7286 37.0229 33.4971 36.856 33.3242L35.6707 32.1389ZM11.4579 36.7223H7.79121C7.5481 36.7223 7.31494 36.8189 7.14303 36.9908C6.97112 37.1627 6.87455 37.3958 6.87455 37.6389C6.87455 37.8821 6.97112 38.1152 7.14303 38.2871C7.31494 38.459 7.5481 38.5556 7.79121 38.5556H11.4579C11.701 38.5556 11.9342 38.459 12.1061 38.2871C12.278 38.1152 12.3745 37.8821 12.3745 37.6389C12.3745 37.3958 12.278 37.1627 12.1061 36.9908C11.9342 36.8189 11.701 36.7223 11.4579 36.7223ZM19.7079 36.7223H16.0412C15.7981 36.7223 15.5649 36.8189 15.393 36.9908C15.2211 37.1627 15.1245 37.3958 15.1245 37.6389C15.1245 37.8821 15.2211 38.1152 15.393 38.2871C15.5649 38.459 15.7981 38.5556 16.0412 38.5556H19.7079C19.951 38.5556 20.1842 38.459 20.3561 38.2871C20.528 38.1152 20.6245 37.8821 20.6245 37.6389C20.6245 37.3958 20.528 37.1627 20.3561 36.9908C20.1842 36.8189 19.951 36.7223 19.7079 36.7223ZM27.9579 36.7223H24.2912C24.0481 36.7223 23.8149 36.8189 23.643 36.9908C23.4711 37.1627 23.3745 37.3958 23.3745 37.6389C23.3745 37.8821 23.4711 38.1152 23.643 38.2871C23.8149 38.459 24.0481 38.5556 24.2912 38.5556H27.9579C28.201 38.5556 28.4342 38.459 28.6061 38.2871C28.778 38.1152 28.8745 37.8821 28.8745 37.6389C28.8745 37.3958 28.778 37.1627 28.6061 36.9908C28.4342 36.8189 28.201 36.7223 27.9579 36.7223ZM36.2079 36.7223H32.5412C32.2981 36.7223 32.0649 36.8189 31.893 36.9908C31.7211 37.1627 31.6245 37.3958 31.6245 37.6389C31.6245 37.8821 31.7211 38.1152 31.893 38.2871C32.0649 38.459 32.2981 38.5556 32.5412 38.5556H36.2079C36.451 38.5556 36.6842 38.459 36.8561 38.2871C37.028 38.1152 37.1245 37.8821 37.1245 37.6389C37.1245 37.3958 37.028 37.1627 36.8561 36.9908C36.6842 36.8189 36.451 36.7223 36.2079 36.7223ZM29.837 14.3556H28.1412V12.5223C28.1412 10.8934 27.4941 9.33125 26.3424 8.17947C25.1906 7.02768 23.6284 6.38062 21.9995 6.38062C20.3707 6.38062 18.8085 7.02768 17.6567 8.17947C16.5049 9.33125 15.8579 10.8934 15.8579 12.5223V14.3556H14.162C14.0413 14.3544 13.9216 14.3773 13.8098 14.4229C13.698 14.4685 13.5965 14.536 13.5111 14.6214C13.4258 14.7067 13.3583 14.8083 13.3127 14.92C13.267 15.0318 13.2442 15.1516 13.2454 15.2723V23.8889C13.2459 24.6181 13.5358 25.3173 14.0514 25.833C14.567 26.3486 15.2662 26.6385 15.9954 26.6389H28.0037C28.7329 26.6385 29.4321 26.3486 29.9477 25.833C30.4633 25.3173 30.7532 24.6181 30.7537 23.8889V15.2723C30.7549 15.1516 30.7321 15.0318 30.6864 14.92C30.6408 14.8083 30.5733 14.7067 30.488 14.6214C30.4026 14.536 30.3011 14.4685 30.1893 14.4229C30.0775 14.3773 29.9578 14.3544 29.837 14.3556ZM17.6912 12.5223C17.6912 11.3796 18.1451 10.2838 18.9531 9.47583C19.7611 8.66786 20.8569 8.21395 21.9995 8.21395C23.1422 8.21395 24.238 8.66786 25.046 9.47583C25.854 10.2838 26.3079 11.3796 26.3079 12.5223V14.3556H17.6912V12.5223Z" fill="white"/>
</svg>
