<svg width="44" height="45" viewBox="0 0 44 45" fill="none" xmlns="http://www.w3.org/2000/svg">
<path d="M10.848 24.5442C10.7173 24.4136 10.5401 24.3402 10.3554 24.3402C10.1707 24.3402 9.99347 24.4136 9.86282 24.5442L8.96197 25.4451L8.06113 24.5442C7.99686 24.4777 7.91998 24.4246 7.83498 24.3881C7.74998 24.3516 7.65855 24.3324 7.56605 24.3316C7.47354 24.3307 7.38179 24.3484 7.29617 24.3834C7.21055 24.4184 7.13276 24.4702 7.06734 24.5356C7.00193 24.601 6.95019 24.6788 6.91516 24.7644C6.88013 24.85 6.8625 24.9418 6.86331 25.0343C6.86411 25.1268 6.88333 25.2182 6.91984 25.3032C6.95636 25.3882 7.00944 25.4651 7.07598 25.5294L7.97683 26.4302L7.07598 27.3311C7.00944 27.3953 6.95636 27.4722 6.91984 27.5572C6.88333 27.6422 6.86411 27.7336 6.86331 27.8261C6.8625 27.9187 6.88013 28.0104 6.91516 28.096C6.95019 28.1816 7.00193 28.2594 7.06734 28.3248C7.13276 28.3903 7.21055 28.442 7.29617 28.477C7.38179 28.5121 7.47354 28.5297 7.56605 28.5289C7.65855 28.5281 7.74998 28.5089 7.83498 28.4723C7.91998 28.4358 7.99686 28.3828 8.06113 28.3162L8.96197 27.4154L9.86282 28.3162C9.99422 28.4431 10.1702 28.5133 10.3529 28.5118C10.5356 28.5102 10.7103 28.4369 10.8395 28.3077C10.9687 28.1786 11.0419 28.0038 11.0435 27.8211C11.0451 27.6385 10.9749 27.4625 10.848 27.3311L9.94712 26.4302L10.848 25.5294C10.9786 25.3987 11.052 25.2215 11.052 25.0368C11.052 24.8521 10.9786 24.6749 10.848 24.5442ZM17.1184 24.5442C16.9877 24.4136 16.8105 24.3402 16.6258 24.3402C16.441 24.3402 16.2639 24.4136 16.1332 24.5442L15.2324 25.4451L14.3315 24.5442C14.2001 24.4173 14.0241 24.3471 13.8415 24.3487C13.6588 24.3503 13.484 24.4235 13.3549 24.5527C13.2257 24.6819 13.1524 24.8566 13.1508 25.0393C13.1492 25.222 13.2195 25.398 13.3464 25.5294L14.2472 26.4302L13.3464 27.3311C13.2798 27.3953 13.2268 27.4722 13.1902 27.5572C13.1537 27.6422 13.1345 27.7336 13.1337 27.8261C13.1329 27.9187 13.1505 28.0104 13.1856 28.096C13.2206 28.1816 13.2723 28.2594 13.3377 28.3248C13.4032 28.3903 13.4809 28.442 13.5666 28.477C13.6522 28.5121 13.7439 28.5297 13.8364 28.5289C13.9289 28.5281 14.0204 28.5089 14.1054 28.4723C14.1904 28.4358 14.2673 28.3828 14.3315 28.3162L15.2324 27.4154L16.1332 28.3162C16.2646 28.4431 16.4406 28.5133 16.6233 28.5118C16.806 28.5102 16.9807 28.4369 17.1099 28.3077C17.239 28.1786 17.3123 28.0038 17.3139 27.8211C17.3155 27.6385 17.2453 27.4625 17.1184 27.3311L16.2175 26.4302L17.1184 25.5294C17.249 25.3987 17.3223 25.2215 17.3223 25.0368C17.3223 24.8521 17.249 24.6749 17.1184 24.5442ZM23.3888 24.5442C23.2581 24.4136 23.0809 24.3402 22.8962 24.3402C22.7114 24.3402 22.5343 24.4136 22.4036 24.5442L21.5028 25.4451L20.6019 24.5442C20.4705 24.4173 20.2945 24.3471 20.1118 24.3487C19.9292 24.3503 19.7544 24.4235 19.6253 24.5527C19.4961 24.6819 19.4228 24.8566 19.4212 25.0393C19.4196 25.222 19.4899 25.398 19.6168 25.5294L20.5176 26.4302L19.6168 27.3311C19.5502 27.3953 19.4971 27.4722 19.4606 27.5572C19.4241 27.6422 19.4049 27.7336 19.4041 27.8261C19.4033 27.9187 19.4209 28.0104 19.4559 28.096C19.491 28.1816 19.5427 28.2594 19.6081 28.3248C19.6735 28.3903 19.7513 28.442 19.837 28.477C19.9226 28.5121 20.0143 28.5297 20.1068 28.5289C20.1993 28.5281 20.2908 28.5089 20.3758 28.4723C20.4608 28.4358 20.5376 28.3828 20.6019 28.3162L21.5028 27.4154L22.4036 28.3162C22.535 28.4431 22.711 28.5133 22.8937 28.5118C23.0763 28.5102 23.2511 28.4369 23.3803 28.3077C23.5094 28.1786 23.5827 28.0038 23.5843 27.8211C23.5859 27.6385 23.5157 27.4625 23.3888 27.3311L22.4879 26.4302L23.3888 25.5294C23.5194 25.3987 23.5927 25.2215 23.5927 25.0368C23.5927 24.8521 23.5194 24.6749 23.3888 24.5442ZM28.7583 26.4302L29.6591 25.5294C29.7861 25.398 29.8563 25.222 29.8547 25.0393C29.8531 24.8566 29.7798 24.6819 29.6507 24.5527C29.5215 24.4235 29.3467 24.3503 29.1641 24.3487C28.9814 24.3471 28.8054 24.4173 28.674 24.5442L27.7732 25.4451L26.8723 24.5442C26.7409 24.4173 26.5649 24.3471 26.3822 24.3487C26.1996 24.3503 26.0248 24.4235 25.8956 24.5527C25.7665 24.6819 25.6932 24.8566 25.6916 25.0393C25.69 25.222 25.7602 25.398 25.8872 25.5294L26.788 26.4302L25.8872 27.3311C25.8206 27.3953 25.7675 27.4722 25.731 27.5572C25.6945 27.6422 25.6753 27.7336 25.6745 27.8261C25.6737 27.9187 25.6913 28.0104 25.7263 28.096C25.7614 28.1816 25.8131 28.2594 25.8785 28.3248C25.9439 28.3903 26.0217 28.442 26.1073 28.477C26.193 28.5121 26.2847 28.5297 26.3772 28.5289C26.4697 28.5281 26.5612 28.5089 26.6462 28.4723C26.7312 28.4358 26.808 28.3828 26.8723 28.3162L27.7732 27.4154L28.674 28.3162C28.8054 28.4431 28.9814 28.5133 29.1641 28.5118C29.3467 28.5102 29.5215 28.4369 29.6507 28.3077C29.7798 28.1786 29.8531 28.0038 29.8547 27.8211C29.8563 27.6385 29.7861 27.4625 29.6591 27.3311L28.7583 26.4302ZM10.3554 29.9138H7.56855C7.38377 29.9138 7.20656 29.9872 7.0759 30.1178C6.94525 30.2485 6.87184 30.4257 6.87184 30.6105C6.87184 30.7953 6.94525 30.9725 7.0759 31.1031C7.20656 31.2338 7.38377 31.3072 7.56855 31.3072H10.3554C10.5402 31.3072 10.7174 31.2338 10.848 31.1031C10.9787 30.9725 11.0521 30.7953 11.0521 30.6105C11.0521 30.4257 10.9787 30.2485 10.848 30.1178C10.7174 29.9872 10.5402 29.9138 10.3554 29.9138ZM16.6258 29.9138H13.8389C13.6542 29.9138 13.477 29.9872 13.3463 30.1178C13.2156 30.2485 13.1422 30.4257 13.1422 30.6105C13.1422 30.7953 13.2156 30.9725 13.3463 31.1031C13.477 31.2338 13.6542 31.3072 13.8389 31.3072H16.6258C16.8106 31.3072 16.9878 31.2338 17.1184 31.1031C17.2491 30.9725 17.3225 30.7953 17.3225 30.6105C17.3225 30.4257 17.2491 30.2485 17.1184 30.1178C16.9878 29.9872 16.8106 29.9138 16.6258 29.9138ZM22.8962 29.9138H20.1093C19.9246 29.9138 19.7473 29.9872 19.6167 30.1178C19.486 30.2485 19.4126 30.4257 19.4126 30.6105C19.4126 30.7953 19.486 30.9725 19.6167 31.1031C19.7473 31.2338 19.9246 31.3072 20.1093 31.3072H22.8962C23.081 31.3072 23.2582 31.2338 23.3888 31.1031C23.5195 30.9725 23.5929 30.7953 23.5929 30.6105C23.5929 30.4257 23.5195 30.2485 23.3888 30.1178C23.2582 29.9872 23.081 29.9138 22.8962 29.9138ZM29.1666 29.9138H26.3797C26.195 29.9138 26.0177 29.9872 25.8871 30.1178C25.7564 30.2485 25.683 30.4257 25.683 30.6105C25.683 30.7953 25.7564 30.9725 25.8871 31.1031C26.0177 31.2338 26.195 31.3072 26.3797 31.3072H29.1666C29.3513 31.3072 29.5286 31.2338 29.6592 31.1031C29.7899 30.9725 29.8633 30.7953 29.8633 30.6105C29.8633 30.4257 29.7899 30.2485 29.6592 30.1178C29.5286 29.9872 29.3513 29.9138 29.1666 29.9138ZM24.3244 12.914H23.0355V11.5206C23.0355 10.2826 22.5437 9.09529 21.6683 8.21987C20.7929 7.34446 19.6056 6.85266 18.3676 6.85266C17.1295 6.85266 15.9422 7.34446 15.0668 8.21987C14.1914 9.09529 13.6996 10.2826 13.6996 11.5206V12.914H12.4107C12.3189 12.9131 12.2279 12.9305 12.143 12.9652C12.058 12.9999 11.9808 13.0511 11.916 13.116C11.8511 13.1809 11.7998 13.2581 11.7651 13.343C11.7304 13.428 11.713 13.519 11.714 13.6108V20.1598C11.7143 20.714 11.9347 21.2455 12.3266 21.6374C12.7185 22.0293 13.2499 22.2496 13.8041 22.25H22.931C23.4852 22.2496 24.0167 22.0293 24.4086 21.6374C24.8004 21.2455 25.0208 20.714 25.0211 20.1598V13.6108C25.0221 13.519 25.0047 13.428 24.97 13.343C24.9353 13.2581 24.884 13.1809 24.8192 13.116C24.7543 13.0511 24.6771 12.9999 24.5922 12.9652C24.5072 12.9305 24.4162 12.9131 24.3244 12.914ZM15.093 11.5206C15.093 10.6522 15.438 9.81927 16.0521 9.20517C16.6662 8.59108 17.4991 8.24608 18.3676 8.24608C19.236 8.24608 20.0689 8.59108 20.683 9.20517C21.2971 9.81927 21.6421 10.6522 21.6421 11.5206V12.914H15.093V11.5206Z" fill="white"/>
</svg>
