<svg width="44" height="45" viewBox="0 0 44 45" fill="none" xmlns="http://www.w3.org/2000/svg">
<path d="M12.106 30.1296C11.9341 29.9577 11.7009 29.8612 11.4579 29.8612C11.2148 29.8612 10.9817 29.9577 10.8098 30.1296L9.62455 31.3148L8.4393 30.1296C8.35474 30.042 8.25359 29.9722 8.14175 29.9241C8.02991 29.8761 7.90963 29.8508 7.78791 29.8498C7.6662 29.8487 7.54549 29.8719 7.43284 29.918C7.32018 29.9641 7.21783 30.0321 7.13177 30.1182C7.0457 30.2043 6.97763 30.3066 6.93154 30.4193C6.88545 30.5319 6.86226 30.6526 6.86332 30.7744C6.86437 30.8961 6.88966 31.0164 6.9377 31.1282C6.98574 31.24 7.05558 31.3412 7.14313 31.4257L8.32838 32.611L7.14313 33.7962C7.05558 33.8808 6.98574 33.982 6.9377 34.0938C6.88966 34.2056 6.86437 34.3259 6.86332 34.4476C6.86226 34.5693 6.88545 34.69 6.93154 34.8027C6.97763 34.9154 7.0457 35.0177 7.13177 35.1038C7.21783 35.1898 7.32018 35.2579 7.43284 35.304C7.54549 35.3501 7.6662 35.3733 7.78791 35.3722C7.90963 35.3712 8.02991 35.3459 8.14175 35.2978C8.25359 35.2498 8.35474 35.18 8.4393 35.0924L9.62455 33.9072L10.8098 35.0924C10.9827 35.2594 11.2142 35.3518 11.4546 35.3497C11.6949 35.3476 11.9248 35.2512 12.0948 35.0812C12.2648 34.9113 12.3612 34.6814 12.3632 34.441C12.3653 34.2007 12.2729 33.9691 12.106 33.7962L10.9207 32.611L12.106 31.4257C12.2778 31.2538 12.3743 31.0207 12.3743 30.7777C12.3743 30.5346 12.2778 30.3015 12.106 30.1296ZM20.356 30.1296C20.1841 29.9577 19.9509 29.8612 19.7079 29.8612C19.4648 29.8612 19.2317 29.9577 19.0598 30.1296L17.8745 31.3148L16.6893 30.1296C16.5164 29.9626 16.2849 29.8702 16.0445 29.8723C15.8042 29.8744 15.5743 29.9708 15.4043 30.1407C15.2343 30.3107 15.1379 30.5406 15.1358 30.781C15.1338 31.0213 15.2262 31.2529 15.3931 31.4257L16.5784 32.611L15.3931 33.7962C15.3056 33.8808 15.2357 33.982 15.1877 34.0938C15.1397 34.2056 15.1144 34.3259 15.1133 34.4476C15.1123 34.5693 15.1355 34.69 15.1815 34.8027C15.2276 34.9154 15.2957 35.0177 15.3818 35.1038C15.4678 35.1898 15.5702 35.2579 15.6828 35.304C15.7955 35.3501 15.9162 35.3733 16.0379 35.3722C16.1596 35.3712 16.2799 35.3459 16.3917 35.2978C16.5036 35.2498 16.6047 35.18 16.6893 35.0924L17.8745 33.9072L19.0598 35.0924C19.2327 35.2594 19.4642 35.3518 19.7046 35.3497C19.9449 35.3476 20.1748 35.2512 20.3448 35.0812C20.5148 34.9113 20.6112 34.6814 20.6132 34.441C20.6153 34.2007 20.5229 33.9691 20.356 33.7962L19.1707 32.611L20.356 31.4257C20.5278 31.2538 20.6243 31.0207 20.6243 30.7777C20.6243 30.5346 20.5278 30.3015 20.356 30.1296ZM28.606 30.1296C28.4341 29.9577 28.2009 29.8612 27.9579 29.8612C27.7148 29.8612 27.4817 29.9577 27.3098 30.1296L26.1245 31.3148L24.9393 30.1296C24.7664 29.9626 24.5349 29.8702 24.2945 29.8723C24.0542 29.8744 23.8243 29.9708 23.6543 30.1407C23.4843 30.3107 23.3879 30.5406 23.3858 30.781C23.3838 31.0213 23.4762 31.2529 23.6431 31.4257L24.8284 32.611L23.6431 33.7962C23.5556 33.8808 23.4857 33.982 23.4377 34.0938C23.3897 34.2056 23.3644 34.3259 23.3633 34.4476C23.3623 34.5693 23.3855 34.69 23.4315 34.8027C23.4776 34.9154 23.5457 35.0177 23.6318 35.1038C23.7178 35.1898 23.8202 35.2579 23.9328 35.304C24.0455 35.3501 24.1662 35.3733 24.2879 35.3722C24.4096 35.3712 24.5299 35.3459 24.6418 35.2978C24.7536 35.2498 24.8547 35.18 24.9393 35.0924L26.1245 33.9072L27.3098 35.0924C27.4827 35.2594 27.7142 35.3518 27.9546 35.3497C28.1949 35.3476 28.4248 35.2512 28.5948 35.0812C28.7648 34.9113 28.8612 34.6814 28.8632 34.441C28.8653 34.2007 28.7729 33.9691 28.606 33.7962L27.4207 32.611L28.606 31.4257C28.7778 31.2538 28.8744 31.0207 28.8744 30.7777C28.8744 30.5346 28.7778 30.3015 28.606 30.1296ZM35.6707 32.611L36.856 31.4257C37.0229 31.2529 37.1153 31.0213 37.1132 30.781C37.1112 30.5406 37.0148 30.3107 36.8448 30.1407C36.6748 29.9708 36.4449 29.8744 36.2046 29.8723C35.9642 29.8702 35.7327 29.9626 35.5598 30.1296L34.3745 31.3148L33.1893 30.1296C33.0164 29.9626 32.7849 29.8702 32.5445 29.8723C32.3042 29.8744 32.0743 29.9708 31.9043 30.1407C31.7343 30.3107 31.6379 30.5406 31.6358 30.781C31.6338 31.0213 31.7262 31.2529 31.8931 31.4257L33.0784 32.611L31.8931 33.7962C31.8056 33.8808 31.7357 33.982 31.6877 34.0938C31.6397 34.2056 31.6144 34.3259 31.6133 34.4476C31.6123 34.5693 31.6355 34.69 31.6815 34.8027C31.7276 34.9154 31.7957 35.0177 31.8818 35.1038C31.9678 35.1898 32.0702 35.2579 32.1828 35.304C32.2955 35.3501 32.4162 35.3733 32.5379 35.3722C32.6596 35.3712 32.7799 35.3459 32.8918 35.2978C33.0036 35.2498 33.1047 35.18 33.1893 35.0924L34.3745 33.9072L35.5598 35.0924C35.7327 35.2594 35.9642 35.3518 36.2046 35.3497C36.4449 35.3476 36.6748 35.2512 36.8448 35.0812C37.0148 34.9113 37.1112 34.6814 37.1132 34.441C37.1153 34.2007 37.0229 33.9691 36.856 33.7962L35.6707 32.611ZM11.4579 37.1943H7.79121C7.5481 37.1943 7.31494 37.2909 7.14303 37.4628C6.97112 37.6347 6.87455 37.8679 6.87455 38.111C6.87455 38.3541 6.97112 38.5873 7.14303 38.7592C7.31494 38.9311 7.5481 39.0277 7.79121 39.0277H11.4579C11.701 39.0277 11.9342 38.9311 12.1061 38.7592C12.278 38.5873 12.3745 38.3541 12.3745 38.111C12.3745 37.8679 12.278 37.6347 12.1061 37.4628C11.9342 37.2909 11.701 37.1943 11.4579 37.1943ZM19.7079 37.1943H16.0412C15.7981 37.1943 15.5649 37.2909 15.393 37.4628C15.2211 37.6347 15.1245 37.8679 15.1245 38.111C15.1245 38.3541 15.2211 38.5873 15.393 38.7592C15.5649 38.9311 15.7981 39.0277 16.0412 39.0277H19.7079C19.951 39.0277 20.1842 38.9311 20.3561 38.7592C20.528 38.5873 20.6245 38.3541 20.6245 38.111C20.6245 37.8679 20.528 37.6347 20.3561 37.4628C20.1842 37.2909 19.951 37.1943 19.7079 37.1943ZM27.9579 37.1943H24.2912C24.0481 37.1943 23.8149 37.2909 23.643 37.4628C23.4711 37.6347 23.3745 37.8679 23.3745 38.111C23.3745 38.3541 23.4711 38.5873 23.643 38.7592C23.8149 38.9311 24.0481 39.0277 24.2912 39.0277H27.9579C28.201 39.0277 28.4342 38.9311 28.6061 38.7592C28.778 38.5873 28.8745 38.3541 28.8745 38.111C28.8745 37.8679 28.778 37.6347 28.6061 37.4628C28.4342 37.2909 28.201 37.1943 27.9579 37.1943ZM36.2079 37.1943H32.5412C32.2981 37.1943 32.0649 37.2909 31.893 37.4628C31.7211 37.6347 31.6245 37.8679 31.6245 38.111C31.6245 38.3541 31.7211 38.5873 31.893 38.7592C32.0649 38.9311 32.2981 39.0277 32.5412 39.0277H36.2079C36.451 39.0277 36.6842 38.9311 36.8561 38.7592C37.028 38.5873 37.1245 38.3541 37.1245 38.111C37.1245 37.8679 37.028 37.6347 36.8561 37.4628C36.6842 37.2909 36.451 37.1943 36.2079 37.1943ZM29.837 14.8277H28.1412V12.9943C28.1412 11.3655 27.4941 9.8033 26.3424 8.65151C25.1906 7.49973 23.6284 6.85266 21.9995 6.85266C20.3707 6.85266 18.8085 7.49973 17.6567 8.65151C16.5049 9.8033 15.8579 11.3655 15.8579 12.9943V14.8277H14.162C14.0413 14.8264 13.9216 14.8493 13.8098 14.8949C13.698 14.9406 13.5965 15.008 13.5111 15.0934C13.4258 15.1788 13.3583 15.2803 13.3127 15.3921C13.267 15.5039 13.2442 15.6236 13.2454 15.7443V24.361C13.2459 25.0902 13.5358 25.7894 14.0514 26.305C14.567 26.8206 15.2662 27.1105 15.9954 27.111H28.0037C28.7329 27.1105 29.4321 26.8206 29.9477 26.305C30.4633 25.7894 30.7532 25.0902 30.7537 24.361V15.7443C30.7549 15.6236 30.7321 15.5039 30.6864 15.3921C30.6408 15.2803 30.5733 15.1788 30.488 15.0934C30.4026 15.008 30.3011 14.9406 30.1893 14.8949C30.0775 14.8493 29.9578 14.8264 29.837 14.8277ZM17.6912 12.9943C17.6912 11.8517 18.1451 10.7558 18.9531 9.94788C19.7611 9.13991 20.8569 8.68599 21.9995 8.68599C23.1422 8.68599 24.238 9.13991 25.046 9.94788C25.854 10.7558 26.3079 11.8517 26.3079 12.9943V14.8277H17.6912V12.9943Z" fill="white"/>
</svg>
