<svg width="44" height="45" viewBox="0 0 44 45" fill="none" xmlns="http://www.w3.org/2000/svg">
<path d="M12.106 29.7129C11.9341 29.5411 11.7009 29.4446 11.4579 29.4446C11.2148 29.4446 10.9817 29.5411 10.8098 29.7129L9.62455 30.8982L8.4393 29.7129C8.35474 29.6254 8.25359 29.5556 8.14175 29.5075C8.02991 29.4595 7.90963 29.4342 7.78791 29.4331C7.6662 29.4321 7.54549 29.4553 7.43284 29.5014C7.32018 29.5475 7.21783 29.6155 7.13177 29.7016C7.0457 29.7877 6.97763 29.89 6.93154 30.0027C6.88545 30.1153 6.86226 30.236 6.86332 30.3577C6.86437 30.4794 6.88966 30.5997 6.9377 30.7116C6.98574 30.8234 7.05558 30.9246 7.14313 31.0091L8.32838 32.1944L7.14313 33.3796C7.05558 33.4642 6.98574 33.5653 6.9377 33.6772C6.88966 33.789 6.86437 33.9093 6.86332 34.031C6.86226 34.1527 6.88545 34.2734 6.93154 34.3861C6.97763 34.4987 7.0457 34.6011 7.13177 34.6871C7.21783 34.7732 7.32018 34.8413 7.43284 34.8874C7.54549 34.9335 7.6662 34.9567 7.78791 34.9556C7.90963 34.9545 8.02991 34.9293 8.14175 34.8812C8.25359 34.8332 8.35474 34.7633 8.4393 34.6758L9.62455 33.4905L10.8098 34.6758C10.9827 34.8428 11.2142 34.9352 11.4546 34.9331C11.6949 34.931 11.9248 34.8346 12.0948 34.6646C12.2648 34.4947 12.3612 34.2647 12.3632 34.0244C12.3653 33.7841 12.2729 33.5525 12.106 33.3796L10.9207 32.1944L12.106 31.0091C12.2778 30.8372 12.3743 30.6041 12.3743 30.361C12.3743 30.118 12.2778 29.8848 12.106 29.7129ZM20.356 29.7129C20.1841 29.5411 19.9509 29.4446 19.7079 29.4446C19.4648 29.4446 19.2317 29.5411 19.0598 29.7129L17.8745 30.8982L16.6893 29.7129C16.5164 29.546 16.2849 29.4536 16.0445 29.4557C15.8042 29.4578 15.5743 29.5542 15.4043 29.7241C15.2343 29.8941 15.1379 30.124 15.1358 30.3643C15.1338 30.6047 15.2262 30.8362 15.3931 31.0091L16.5784 32.1944L15.3931 33.3796C15.3056 33.4642 15.2357 33.5653 15.1877 33.6772C15.1397 33.789 15.1144 33.9093 15.1133 34.031C15.1123 34.1527 15.1355 34.2734 15.1815 34.3861C15.2276 34.4987 15.2957 34.6011 15.3818 34.6871C15.4678 34.7732 15.5702 34.8413 15.6828 34.8874C15.7955 34.9335 15.9162 34.9567 16.0379 34.9556C16.1596 34.9545 16.2799 34.9293 16.3917 34.8812C16.5036 34.8332 16.6047 34.7633 16.6893 34.6758L17.8745 33.4905L19.0598 34.6758C19.2327 34.8428 19.4642 34.9352 19.7046 34.9331C19.9449 34.931 20.1748 34.8346 20.3448 34.6646C20.5148 34.4947 20.6112 34.2647 20.6132 34.0244C20.6153 33.7841 20.5229 33.5525 20.356 33.3796L19.1707 32.1944L20.356 31.0091C20.5278 30.8372 20.6243 30.6041 20.6243 30.361C20.6243 30.118 20.5278 29.8848 20.356 29.7129ZM28.606 29.7129C28.4341 29.5411 28.2009 29.4446 27.9579 29.4446C27.7148 29.4446 27.4817 29.5411 27.3098 29.7129L26.1245 30.8982L24.9393 29.7129C24.7664 29.546 24.5349 29.4536 24.2945 29.4557C24.0542 29.4578 23.8243 29.5542 23.6543 29.7241C23.4843 29.8941 23.3879 30.124 23.3858 30.3643C23.3838 30.6047 23.4762 30.8362 23.6431 31.0091L24.8284 32.1944L23.6431 33.3796C23.5556 33.4642 23.4857 33.5653 23.4377 33.6772C23.3897 33.789 23.3644 33.9093 23.3633 34.031C23.3623 34.1527 23.3855 34.2734 23.4315 34.3861C23.4776 34.4987 23.5457 34.6011 23.6318 34.6871C23.7178 34.7732 23.8202 34.8413 23.9328 34.8874C24.0455 34.9335 24.1662 34.9567 24.2879 34.9556C24.4096 34.9545 24.5299 34.9293 24.6418 34.8812C24.7536 34.8332 24.8547 34.7633 24.9393 34.6758L26.1245 33.4905L27.3098 34.6758C27.4827 34.8428 27.7142 34.9352 27.9546 34.9331C28.1949 34.931 28.4248 34.8346 28.5948 34.6646C28.7648 34.4947 28.8612 34.2647 28.8632 34.0244C28.8653 33.7841 28.7729 33.5525 28.606 33.3796L27.4207 32.1944L28.606 31.0091C28.7778 30.8372 28.8744 30.6041 28.8744 30.361C28.8744 30.118 28.7778 29.8848 28.606 29.7129ZM35.6707 32.1944L36.856 31.0091C37.0229 30.8362 37.1153 30.6047 37.1132 30.3643C37.1112 30.124 37.0148 29.8941 36.8448 29.7241C36.6748 29.5542 36.4449 29.4578 36.2046 29.4557C35.9642 29.4536 35.7327 29.546 35.5598 29.7129L34.3745 30.8982L33.1893 29.7129C33.0164 29.546 32.7849 29.4536 32.5445 29.4557C32.3042 29.4578 32.0743 29.5542 31.9043 29.7241C31.7343 29.8941 31.6379 30.124 31.6358 30.3643C31.6338 30.6047 31.7262 30.8362 31.8931 31.0091L33.0784 32.1944L31.8931 33.3796C31.8056 33.4642 31.7357 33.5653 31.6877 33.6772C31.6397 33.789 31.6144 33.9093 31.6133 34.031C31.6123 34.1527 31.6355 34.2734 31.6815 34.3861C31.7276 34.4987 31.7957 34.6011 31.8818 34.6871C31.9678 34.7732 32.0702 34.8413 32.1828 34.8874C32.2955 34.9335 32.4162 34.9567 32.5379 34.9556C32.6596 34.9545 32.7799 34.9293 32.8918 34.8812C33.0036 34.8332 33.1047 34.7633 33.1893 34.6758L34.3745 33.4905L35.5598 34.6758C35.7327 34.8428 35.9642 34.9352 36.2046 34.9331C36.4449 34.931 36.6748 34.8346 36.8448 34.6646C37.0148 34.4947 37.1112 34.2647 37.1132 34.0244C37.1153 33.7841 37.0229 33.5525 36.856 33.3796L35.6707 32.1944ZM11.4579 36.7777H7.79121C7.5481 36.7777 7.31494 36.8743 7.14303 37.0462C6.97112 37.2181 6.87455 37.4513 6.87455 37.6944C6.87455 37.9375 6.97112 38.1706 7.14303 38.3425C7.31494 38.5145 7.5481 38.611 7.79121 38.611H11.4579C11.701 38.611 11.9342 38.5145 12.1061 38.3425C12.278 38.1706 12.3745 37.9375 12.3745 37.6944C12.3745 37.4513 12.278 37.2181 12.1061 37.0462C11.9342 36.8743 11.701 36.7777 11.4579 36.7777ZM19.7079 36.7777H16.0412C15.7981 36.7777 15.5649 36.8743 15.393 37.0462C15.2211 37.2181 15.1245 37.4513 15.1245 37.6944C15.1245 37.9375 15.2211 38.1706 15.393 38.3425C15.5649 38.5145 15.7981 38.611 16.0412 38.611H19.7079C19.951 38.611 20.1842 38.5145 20.3561 38.3425C20.528 38.1706 20.6245 37.9375 20.6245 37.6944C20.6245 37.4513 20.528 37.2181 20.3561 37.0462C20.1842 36.8743 19.951 36.7777 19.7079 36.7777ZM27.9579 36.7777H24.2912C24.0481 36.7777 23.8149 36.8743 23.643 37.0462C23.4711 37.2181 23.3745 37.4513 23.3745 37.6944C23.3745 37.9375 23.4711 38.1706 23.643 38.3425C23.8149 38.5145 24.0481 38.611 24.2912 38.611H27.9579C28.201 38.611 28.4342 38.5145 28.6061 38.3425C28.778 38.1706 28.8745 37.9375 28.8745 37.6944C28.8745 37.4513 28.778 37.2181 28.6061 37.0462C28.4342 36.8743 28.201 36.7777 27.9579 36.7777ZM36.2079 36.7777H32.5412C32.2981 36.7777 32.0649 36.8743 31.893 37.0462C31.7211 37.2181 31.6245 37.4513 31.6245 37.6944C31.6245 37.9375 31.7211 38.1706 31.893 38.3425C32.0649 38.5145 32.2981 38.611 32.5412 38.611H36.2079C36.451 38.611 36.6842 38.5145 36.8561 38.3425C37.028 38.1706 37.1245 37.9375 37.1245 37.6944C37.1245 37.4513 37.028 37.2181 36.8561 37.0462C36.6842 36.8743 36.451 36.7777 36.2079 36.7777ZM29.837 14.411H28.1412V12.5777C28.1412 10.9488 27.4941 9.38667 26.3424 8.23489C25.1906 7.0831 23.6284 6.43604 21.9995 6.43604C20.3707 6.43604 18.8085 7.0831 17.6567 8.23489C16.5049 9.38667 15.8579 10.9488 15.8579 12.5777V14.411H14.162C14.0413 14.4098 13.9216 14.4327 13.8098 14.4783C13.698 14.5239 13.5965 14.5914 13.5111 14.6768C13.4258 14.7622 13.3583 14.8637 13.3127 14.9755C13.267 15.0872 13.2442 15.207 13.2454 15.3277V23.9444C13.2459 24.6736 13.5358 25.3728 14.0514 25.8884C14.567 26.404 15.2662 26.6939 15.9954 26.6944H28.0037C28.7329 26.6939 29.4321 26.404 29.9477 25.8884C30.4633 25.3728 30.7532 24.6736 30.7537 23.9444V15.3277C30.7549 15.207 30.7321 15.0872 30.6864 14.9755C30.6408 14.8637 30.5733 14.7622 30.488 14.6768C30.4026 14.5914 30.3011 14.5239 30.1893 14.4783C30.0775 14.4327 29.9578 14.4098 29.837 14.411ZM17.6912 12.5777C17.6912 11.4351 18.1451 10.3392 18.9531 9.53125C19.7611 8.72328 20.8569 8.26937 21.9995 8.26937C23.1422 8.26937 24.238 8.72328 25.046 9.53125C25.854 10.3392 26.3079 11.4351 26.3079 12.5777V14.411H17.6912V12.5777Z" fill="white"/>
</svg>
