<svg width="129" height="65" viewBox="0 0 129 65" fill="none" xmlns="http://www.w3.org/2000/svg">
<g clip-path="url(#clip0_475_3346)">
<path d="M69.2768 0.969356C68.8597 1.03442 68.4587 2.58774 67.6525 3.39693C67.0629 3.98094 66.327 3.9444 65.9361 4.6664C65.7877 4.93613 65.8358 5.39655 65.6674 5.83863C65.3385 6.72279 64.1795 6.80183 64.1795 7.76517C64.1755 8.80552 65.146 9.00422 65.9862 9.74237C66.6419 10.3366 66.7061 10.7462 67.5001 11.0341C68.178 11.2674 69.1866 10.5048 70.0949 10.7786C70.8409 11.0038 71.5547 11.166 71.7232 11.9407C71.8715 12.6545 71.7132 13.7617 70.8088 13.634C70.504 13.5995 69.1825 13.1493 67.5584 13.3237C65.5991 13.5489 63.3633 14.1956 63.1448 16.4043C63.0245 17.6392 64.5343 19.0953 65.9922 18.7992C67.0008 18.5984 66.5236 17.396 67.073 16.8118C67.7928 16.0636 71.8715 19.4239 75.6634 19.4239C77.2596 19.4239 78.4467 19.0163 79.6259 17.767C79.736 17.6717 79.8705 17.4669 80.0409 17.4547C80.2014 17.4669 80.482 17.627 80.5743 17.696C83.6283 20.1782 85.9362 25.1569 97.1596 25.2157C98.7377 25.2237 100.536 25.9863 102.004 27.341C103.314 28.5659 104.08 30.47 104.823 32.4027C105.946 35.3027 107.96 38.1236 111.012 41.2629C111.178 41.4311 113.691 43.4065 113.891 43.5545C113.923 43.5747 114.108 44.0209 114.044 44.2702C113.969 46.1522 113.699 51.6256 117.733 51.8731C118.72 51.9237 118.461 51.2221 118.461 50.7394C118.459 49.7862 118.287 48.8392 118.784 47.8638C119.464 46.5214 117.342 45.9027 117.404 43.0008C117.448 40.837 115.652 41.206 114.739 39.5573C114.214 38.6021 113.747 38.0952 113.781 36.9269C113.985 30.3525 112.397 26.0329 111.605 24.9723C110.988 24.1713 110.476 23.8529 111.042 23.4818C114.409 21.2328 115.173 19.1399 115.173 19.1399C116.963 14.8833 118.573 10.9955 120.793 9.28414C121.24 8.93114 122.387 8.06533 123.091 7.72456C125.163 6.73691 126.253 6.13878 126.855 5.54648C127.808 4.60759 128.559 2.65062 127.647 1.46427C126.512 4.26449e-05 124.549 1.16208 123.683 1.68117C117.493 5.39655 116.58 11.9507 114.437 15.7147C112.726 18.7221 109.945 20.9306 107.458 21.1111C105.594 21.251 103.584 20.8697 101.583 19.9815C96.7164 17.8238 94.0534 15.0374 93.4258 14.5447C92.1183 13.5246 81.9679 3.44759 73.7443 3.03593C73.7443 3.03593 72.7239 0.969501 72.4671 0.935003C71.8654 0.857854 71.25 2.16997 70.8088 2.32223C70.3937 2.46197 69.6959 0.900504 69.2768 0.969501M33.0743 61.1125C32.3003 61.0941 31.6426 60.4513 31.6426 59.6564L31.6446 33.7148H23.1906V62.3109C23.1906 63.7122 24.3134 64.8561 25.691 64.8561H40.4676C41.8551 64.8561 42.9641 63.7122 42.9641 62.3109V33.7148H34.5181L34.5101 59.6564C34.5101 60.4513 33.8523 61.0941 33.0743 61.1125M61.3802 33.7148H48.5848C47.0709 33.7148 45.8376 34.9599 45.8376 36.5073V64.8559H54.2995V38.8517C54.3055 38.0548 54.9432 37.4241 55.7293 37.4241C56.5194 37.4241 57.153 38.0405 57.171 38.8295V64.8561H65.599V38.8292C65.6091 38.0404 66.2427 37.4239 67.0307 37.4239C67.8128 37.4239 68.4585 38.0546 68.4646 38.8516V64.8561H76.9266V36.5073C76.9266 34.9599 75.6913 33.7148 74.1775 33.7148H61.3802ZM11.8769 38.9063C11.883 38.0404 11.1852 37.4239 10.4452 37.4239H9.0095V53.175H10.4452C11.1912 53.175 11.8831 52.5747 11.8769 51.7129V38.9063ZM17.5498 57.0301H9.0095V64.8561H0.559448V33.7148H17.6041C19.1299 33.7148 20.321 34.9681 20.321 36.5195V54.2255C20.321 55.779 19.0838 57.0301 17.5498 57.0301ZM105.924 57.892C104.226 57.892 102.8 59.3765 102.8 61.1753C102.8 62.9802 104.226 64.4524 105.979 64.4524C107.717 64.4524 109.125 62.9802 109.125 61.1753C109.125 59.3724 107.717 57.892 105.978 57.892H105.924ZM109.73 61.1652C109.73 63.2802 108.054 65 105.979 65C103.881 65 102.197 63.2926 102.197 61.1652C102.197 59.0783 103.881 57.3343 105.916 57.3343C108.054 57.3343 109.73 59.0258 109.73 61.1652" fill="white"/>
<path d="M105.587 60.9218C106.175 60.9218 106.484 60.7109 106.484 60.2892C106.484 59.9139 106.185 59.7214 105.614 59.7214H105.445V60.9218H105.587ZM107.751 63.3838H106.743L105.445 61.6377V63.3838H104.621V58.9689H105.487C106.664 58.9689 107.29 59.4192 107.29 60.279C107.29 60.8528 106.921 61.362 106.406 61.514L106.345 61.5364L107.751 63.3838ZM91.1138 53.1812V38.8416C91.0937 38.0486 90.4621 37.4403 89.6741 37.4403C88.8939 37.4403 88.2482 38.0729 88.2423 38.8639V53.1812H91.1138ZM91.1138 64.8561V57.0383H88.2423V64.8561H79.7963V36.5073C79.7963 34.96 81.0294 33.7148 82.5434 33.7148H96.8126C98.3307 33.7148 99.5639 34.96 99.5639 36.5073V64.856L91.1138 64.8561Z" fill="white"/>
</g>
<defs>
<clipPath id="clip0_475_3346">
<rect width="128" height="65" fill="white" transform="translate(0.559448)"/>
</clipPath>
</defs>
</svg>
