<svg width="322" height="188" viewBox="0 0 322 188" fill="none" xmlns="http://www.w3.org/2000/svg">
<g filter="url(#filter0_d_141_275)">
<path d="M16 47C16 27.1177 32.1177 11 52 11H270C289.882 11 306 27.1178 306 47V131C306 150.882 289.882 167 270 167H19C17.3431 167 16 165.657 16 164V47Z" fill="white"/>
<path d="M52 11.5H270C289.606 11.5 305.5 27.3939 305.5 47V131C305.5 150.606 289.606 166.5 270 166.5H19C17.6193 166.5 16.5 165.381 16.5 164V47C16.5 27.3939 32.3939 11.5 52 11.5Z" stroke="#EFF0F7"/>
</g>
<defs>
<filter id="filter0_d_141_275" x="0" y="0" width="322" height="188" filterUnits="userSpaceOnUse" color-interpolation-filters="sRGB">
<feFlood flood-opacity="0" result="BackgroundImageFix"/>
<feColorMatrix in="SourceAlpha" type="matrix" values="0 0 0 0 0 0 0 0 0 0 0 0 0 0 0 0 0 0 127 0" result="hardAlpha"/>
<feOffset dy="5"/>
<feGaussianBlur stdDeviation="8"/>
<feColorMatrix type="matrix" values="0 0 0 0 0.0323264 0 0 0 0 0.0598209 0 0 0 0 0.204167 0 0 0 0.06 0"/>
<feBlend mode="normal" in2="BackgroundImageFix" result="effect1_dropShadow_141_275"/>
<feBlend mode="normal" in="SourceGraphic" in2="effect1_dropShadow_141_275" result="shape"/>
</filter>
</defs>
</svg>
