<svg width="23" height="23" viewBox="0 0 23 23" fill="none" xmlns="http://www.w3.org/2000/svg">
<g clip-path="url(#clip0_475_3444)">
<path d="M1.5 12.1299H19.0858L15.7929 15.4228C15.4023 15.8133 15.4023 16.4465 15.7929 16.837C15.9881 17.0322 16.2441 17.1299 16.5 17.1299C16.7559 17.1299 17.0119 17.0322 17.2071 16.8369L22.2071 11.8369C22.5976 11.4465 22.5976 10.8133 22.2071 10.4227L17.2071 5.42273C16.8166 5.03227 16.1834 5.03227 15.7929 5.42273C15.4023 5.8132 15.4023 6.4464 15.7929 6.83693L19.0858 10.1299H1.5C0.947733 10.1299 0.5 10.5776 0.5 11.1299C0.5 11.6821 0.947733 12.1299 1.5 12.1299Z" fill="white"/>
</g>
<defs>
<clipPath id="clip0_475_3444">
<rect width="22" height="22" fill="white" transform="translate(0.5 0.129883)"/>
</clipPath>
</defs>
</svg>
