<svg width="44" height="44" viewBox="0 0 44 44" fill="none" xmlns="http://www.w3.org/2000/svg">
<path d="M2 24H37.1716L30.5857 30.5858C29.8047 31.3668 29.8047 32.6332 30.5857 33.4142C30.9763 33.8046 31.4881 34 32 34C32.5119 34 33.0237 33.8046 33.4141 33.4141L43.4141 23.4141C44.1952 22.6332 44.1952 21.3668 43.4141 20.5857L33.4141 10.5857C32.6332 9.80477 31.3668 9.80477 30.5857 10.5857C29.8047 11.3666 29.8047 12.633 30.5857 13.4141L37.1716 20H2C0.895467 20 0 20.8954 0 22C0 23.1045 0.895467 24 2 24Z" fill="white"/>
</svg>
