<svg width="40" height="41" viewBox="0 0 40 41" fill="none" xmlns="http://www.w3.org/2000/svg">
<path d="M29.4825 18.88H6.25C5.91848 18.88 5.60054 19.0117 5.36612 19.2461C5.1317 19.4805 5 19.7985 5 20.13C5 20.4615 5.1317 20.7795 5.36612 21.0139C5.60054 21.2483 5.91848 21.38 6.25 21.38H29.4825L20.365 30.495C20.1303 30.7297 19.9984 31.0481 19.9984 31.38C19.9984 31.7119 20.1303 32.0303 20.365 32.265C20.5997 32.4997 20.9181 32.6316 21.25 32.6316C21.5819 32.6316 21.9003 32.4997 22.135 32.265L33.385 21.015C33.5014 20.8989 33.5938 20.7609 33.6568 20.6091C33.7198 20.4572 33.7522 20.2944 33.7522 20.13C33.7522 19.9656 33.7198 19.8028 33.6568 19.6509C33.5938 19.4991 33.5014 19.3611 33.385 19.245L22.135 7.995C21.9003 7.76028 21.5819 7.62842 21.25 7.62842C20.9181 7.62842 20.5997 7.76028 20.365 7.995C20.1303 8.22971 19.9984 8.54806 19.9984 8.88C19.9984 9.21194 20.1303 9.53028 20.365 9.765L29.4825 18.88Z" fill="white"/>
</svg>
