<svg width="17" height="15" viewBox="0 0 17 15" fill="none" xmlns="http://www.w3.org/2000/svg">
<path d="M8.32096 1.28392C7.44899 0.482138 6.30767 0.0371466 5.12311 0.0371094C4.49614 0.0377622 3.87548 0.162398 3.29686 0.403844C2.71824 0.64529 2.19308 0.99878 1.75161 1.44397C-0.13141 3.33499 -0.13061 6.29276 1.75321 8.17577L7.62073 14.0433C7.75677 14.2826 8.01926 14.437 8.32096 14.437C8.44484 14.4358 8.56671 14.4056 8.67678 14.3487C8.78686 14.2919 8.88207 14.21 8.95476 14.1097L14.8887 8.17577C16.7725 6.29196 16.7725 3.33499 14.8871 1.44077C14.4459 0.996397 13.9211 0.643625 13.3431 0.402736C12.765 0.161846 12.145 0.0375892 11.5188 0.0371094C10.3343 0.037303 9.19301 0.482273 8.32096 1.28392V1.28392ZM13.7555 2.57234C15.0063 3.82955 15.0071 5.79339 13.7571 7.0442L8.32096 12.4804L2.88478 7.0442C1.63477 5.79339 1.63557 3.82955 2.88318 2.57554C3.49138 1.97054 4.28684 1.63763 5.12311 1.63763C5.95938 1.63763 6.75164 1.97054 7.35504 2.57394L7.75517 2.97407C7.82943 3.04845 7.91762 3.10746 8.0147 3.14772C8.11179 3.18798 8.21586 3.20871 8.32096 3.20871C8.42606 3.20871 8.53013 3.18798 8.62721 3.14772C8.7243 3.10746 8.81249 3.04845 8.88674 2.97407L9.28687 2.57394C10.4969 1.36634 12.5471 1.36955 13.7555 2.57234V2.57234Z" fill="black"/>
</svg>
