<svg width="17" height="16" viewBox="0 0 17 16" fill="none" xmlns="http://www.w3.org/2000/svg">
<path d="M8.93375 2.16331C8.06179 1.36153 6.92046 0.916541 5.7359 0.916504C5.10893 0.917157 4.48827 1.04179 3.90965 1.28324C3.33104 1.52468 2.80588 1.87817 2.3644 2.32336C0.481383 4.21438 0.482183 7.17215 2.366 9.05517L8.23352 14.9227C8.36957 15.162 8.63205 15.3164 8.93375 15.3164C9.05763 15.3152 9.1795 15.285 9.28957 15.2281C9.39965 15.1713 9.49486 15.0894 9.56756 14.9891L15.5015 9.05517C17.3853 7.17135 17.3853 4.21438 15.4999 2.32016C15.0586 1.87579 14.5339 1.52302 13.9559 1.28213C13.3778 1.04124 12.7578 0.916984 12.1316 0.916504C10.9471 0.916698 9.8058 1.36167 8.93375 2.16331V2.16331ZM14.3683 3.45173C15.6191 4.70895 15.6199 6.67279 14.3699 7.9236L8.93375 13.3598L3.49757 7.9236C2.24756 6.67279 2.24836 4.70895 3.49597 3.45494C4.10417 2.84994 4.89963 2.51703 5.7359 2.51703C6.57218 2.51703 7.36444 2.84994 7.96783 3.45333L8.36796 3.85347C8.44222 3.92785 8.53041 3.98686 8.62749 4.02712C8.72458 4.06738 8.82865 4.0881 8.93375 4.0881C9.03885 4.0881 9.14292 4.06738 9.24 4.02712C9.33709 3.98686 9.42528 3.92785 9.49953 3.85347L9.89967 3.45333C11.1097 2.24574 13.1599 2.24894 14.3683 3.45173V3.45173Z" fill="black"/>
</svg>
