<svg width="17" height="16" viewBox="0 0 17 16" fill="none" xmlns="http://www.w3.org/2000/svg">
<path d="M8.33902 2.16331C7.46706 1.36153 6.32573 0.916541 5.14118 0.916504C4.5142 0.917157 3.89355 1.04179 3.31493 1.28324C2.73631 1.52468 2.21115 1.87817 1.76967 2.32336C-0.113344 4.21438 -0.112544 7.17215 1.77127 9.05517L7.63879 14.9227C7.77484 15.162 8.03732 15.3164 8.33902 15.3164C8.4629 15.3152 8.58477 15.285 8.69485 15.2281C8.80492 15.1713 8.90013 15.0894 8.97283 14.9891L14.9068 9.05517C16.7906 7.17135 16.7906 4.21438 14.9052 2.32016C14.4639 1.87579 13.9392 1.52302 13.3611 1.28213C12.7831 1.04124 12.1631 0.916984 11.5369 0.916504C10.3523 0.916698 9.21107 1.36167 8.33902 2.16331V2.16331ZM13.7736 3.45173C15.0244 4.70895 15.0252 6.67279 13.7752 7.9236L8.33902 13.3598L2.90284 7.9236C1.65283 6.67279 1.65363 4.70895 2.90124 3.45494C3.50944 2.84994 4.3049 2.51703 5.14118 2.51703C5.97745 2.51703 6.76971 2.84994 7.37311 3.45333L7.77324 3.85347C7.84749 3.92785 7.93568 3.98686 8.03277 4.02712C8.12985 4.06738 8.23392 4.0881 8.33902 4.0881C8.44412 4.0881 8.54819 4.06738 8.64528 4.02712C8.74236 3.98686 8.83055 3.92785 8.90481 3.85347L9.30494 3.45333C10.5149 2.24574 12.5652 2.24894 13.7736 3.45173V3.45173Z" fill="black"/>
</svg>
