<svg width="17" height="15" viewBox="0 0 17 15" fill="none" xmlns="http://www.w3.org/2000/svg">
<path d="M8.31656 1.78392C7.4446 0.982138 6.30327 0.537147 5.11872 0.537109C4.49174 0.537762 3.87109 0.662398 3.29247 0.903844C2.71385 1.14529 2.18869 1.49878 1.74721 1.94397C-0.135805 3.83499 -0.135005 6.79276 1.74881 8.67577L7.61633 14.5433C7.75238 14.7826 8.01486 14.937 8.31656 14.937C8.44044 14.9358 8.56231 14.9056 8.67239 14.8487C8.78246 14.7919 8.87767 14.71 8.95037 14.6097L14.8843 8.67577C16.7681 6.79196 16.7681 3.83499 14.8827 1.94077C14.4415 1.4964 13.9167 1.14363 13.3387 0.902736C12.7606 0.661846 12.1406 0.537589 11.5144 0.537109C10.3299 0.537303 9.18861 0.982273 8.31656 1.78392V1.78392ZM13.7511 3.07234C15.002 4.32955 15.0028 6.29339 13.7527 7.5442L8.31656 12.9804L2.88038 7.5442C1.63037 6.29339 1.63117 4.32955 2.87878 3.07554C3.48698 2.47054 4.28244 2.13763 5.11872 2.13763C5.95499 2.13763 6.74725 2.47054 7.35065 3.07394L7.75078 3.47407C7.82503 3.54845 7.91322 3.60746 8.01031 3.64772C8.10739 3.68798 8.21146 3.70871 8.31656 3.70871C8.42166 3.70871 8.52573 3.68798 8.62282 3.64772C8.7199 3.60746 8.80809 3.54845 8.88235 3.47407L9.28248 3.07394C10.4925 1.86634 12.5427 1.86955 13.7511 3.07234V3.07234Z" fill="black"/>
</svg>
