<svg width="17" height="15" viewBox="0 0 17 15" fill="none" xmlns="http://www.w3.org/2000/svg">
<path d="M8.65396 1.78392C7.782 0.982138 6.64067 0.537147 5.45612 0.537109C4.82914 0.537762 4.20849 0.662398 3.62987 0.903844C3.05125 1.14529 2.52609 1.49878 2.08461 1.94397C0.201597 3.83499 0.202398 6.79276 2.08621 8.67577L7.95374 14.5433C8.08978 14.7826 8.35227 14.937 8.65396 14.937C8.77784 14.9358 8.89972 14.9056 9.00979 14.8487C9.11986 14.7919 9.21507 14.71 9.28777 14.6097L15.2217 8.67577C17.1055 6.79196 17.1055 3.83499 15.2201 1.94077C14.7789 1.4964 14.2541 1.14363 13.6761 0.902736C13.098 0.661846 12.478 0.537589 11.8518 0.537109C10.6673 0.537303 9.52601 0.982273 8.65396 1.78392V1.78392ZM14.0885 3.07234C15.3394 4.32955 15.3402 6.29339 14.0901 7.5442L8.65396 12.9804L3.21778 7.5442C1.96778 6.29339 1.96858 4.32955 3.21618 3.07554C3.82438 2.47054 4.61984 2.13763 5.45612 2.13763C6.29239 2.13763 7.08465 2.47054 7.68805 3.07394L8.08818 3.47407C8.16243 3.54845 8.25063 3.60746 8.34771 3.64772C8.44479 3.68798 8.54886 3.70871 8.65396 3.70871C8.75907 3.70871 8.86314 3.68798 8.96022 3.64772C9.0573 3.60746 9.1455 3.54845 9.21975 3.47407L9.61988 3.07394C10.8299 1.86634 12.8801 1.86955 14.0885 3.07234V3.07234Z" fill="black"/>
</svg>
