<svg width="17" height="7" viewBox="0 0 17 7" fill="none" xmlns="http://www.w3.org/2000/svg">
<path d="M16.4686 0.733398L4.90109 5.65811C3.94185 6.06389 3.13612 6.26744 2.48455 6.26744C1.74667 6.26744 1.21105 6.00921 0.879004 5.4921C0.670158 5.1601 0.608888 4.73917 0.694535 4.22865C0.780181 3.71813 1.00813 3.17467 1.37707 2.5963C1.68474 2.1286 2.18874 1.514 2.89038 0.751843C2.65239 1.12644 2.47787 1.53775 2.37386 1.96919C2.1894 2.75637 2.35542 3.33409 2.87193 3.70298C3.11767 3.87491 3.45565 3.9612 3.88651 3.9612C4.23042 3.9612 4.6178 3.90587 5.04867 3.7952L16.4686 0.733398Z" fill="#1F2027"/>
</svg>
