<svg width="16" height="15" viewBox="0 0 16 15" fill="none" xmlns="http://www.w3.org/2000/svg">
<path d="M7.98746 1.28392C7.1155 0.482138 5.97417 0.0371466 4.78961 0.0371094C4.16264 0.0377622 3.54198 0.162398 2.96337 0.403844C2.38475 0.64529 1.85959 0.99878 1.41811 1.44397C-0.464906 3.33499 -0.464106 6.29276 1.41971 8.17577L7.28723 14.0433C7.42328 14.2826 7.68576 14.437 7.98746 14.437C8.11134 14.4358 8.23321 14.4056 8.34329 14.3487C8.45336 14.2919 8.54857 14.21 8.62127 14.1097L14.5552 8.17577C16.439 6.29196 16.439 3.33499 14.5536 1.44077C14.1124 0.996397 13.5876 0.643625 13.0096 0.402736C12.4315 0.161846 11.8115 0.0375892 11.1853 0.0371094C10.0008 0.037303 8.85951 0.482273 7.98746 1.28392V1.28392ZM13.422 2.57234C14.6728 3.82955 14.6736 5.79339 13.4236 7.0442L7.98746 12.4804L2.55128 7.0442C1.30127 5.79339 1.30207 3.82955 2.54968 2.57554C3.15788 1.97054 3.95334 1.63763 4.78961 1.63763C5.62589 1.63763 6.41815 1.97054 7.02154 2.57394L7.42168 2.97407C7.49593 3.04845 7.58412 3.10746 7.68121 3.14772C7.77829 3.18798 7.88236 3.20871 7.98746 3.20871C8.09256 3.20871 8.19663 3.18798 8.29372 3.14772C8.3908 3.10746 8.47899 3.04845 8.55325 2.97407L8.95338 2.57394C10.1634 1.36634 12.2136 1.36955 13.422 2.57234V2.57234Z" fill="black"/>
</svg>
