<svg width="9" height="9" viewBox="0 0 9 9" fill="none" xmlns="http://www.w3.org/2000/svg">
<path d="M8.69861 2.35895C8.56981 2.05776 8.3841 1.78483 8.15187 1.55542C7.91946 1.32534 7.64545 1.14249 7.34473 1.01683C7.0329 0.886008 6.69845 0.819046 6.36079 0.819831C5.88707 0.819831 5.42489 0.95084 5.02324 1.1983C4.92715 1.2575 4.83587 1.32252 4.74939 1.39336C4.66291 1.32252 4.57163 1.2575 4.47554 1.1983C4.07389 0.95084 3.61171 0.819831 3.138 0.819831C2.79688 0.819831 2.46634 0.885821 2.15405 1.01683C1.85234 1.14299 1.58041 1.32446 1.34691 1.55542C1.11438 1.78457 0.928622 2.05757 0.800174 2.35895C0.666611 2.6724 0.598389 3.00526 0.598389 3.34783C0.598389 3.67098 0.663729 4.00772 0.793447 4.35029C0.902027 4.63657 1.05769 4.93352 1.25659 5.23339C1.57176 5.70793 2.00512 6.20286 2.54321 6.70458C3.43491 7.53624 4.31796 8.11074 4.35543 8.13403L4.58316 8.28154C4.68405 8.34656 4.81377 8.34656 4.91466 8.28154L5.14239 8.13403C5.17987 8.10977 6.06195 7.53624 6.95461 6.70458C7.49271 6.20286 7.92606 5.70793 8.24123 5.23339C8.44013 4.93352 8.59676 4.63657 8.70438 4.35029C8.83409 4.00772 8.89943 3.67098 8.89943 3.34783C8.9004 3.00526 8.83217 2.6724 8.69861 2.35895V2.35895Z" fill="white"/>
</svg>
