<svg width="17" height="15" viewBox="0 0 17 15" fill="none" xmlns="http://www.w3.org/2000/svg">
<path d="M8.65885 1.78392C7.78688 0.982138 6.64556 0.537147 5.461 0.537109C4.83403 0.537762 4.21337 0.662398 3.63475 0.903844C3.05613 1.14529 2.53097 1.49878 2.0895 1.94397C0.20648 3.83499 0.20728 6.79276 2.0911 8.67577L7.95862 14.5433C8.09466 14.7826 8.35715 14.937 8.65885 14.937C8.78273 14.9358 8.9046 14.9056 9.01467 14.8487C9.12475 14.7919 9.21996 14.71 9.29265 14.6097L15.2266 8.67577C17.1104 6.79196 17.1104 3.83499 15.225 1.94077C14.7837 1.4964 14.259 1.14363 13.681 0.902736C13.1029 0.661846 12.4829 0.537589 11.8567 0.537109C10.6722 0.537303 9.5309 0.982273 8.65885 1.78392V1.78392ZM14.0934 3.07234C15.3442 4.32955 15.345 6.29339 14.095 7.5442L8.65885 12.9804L3.22267 7.5442C1.97266 6.29339 1.97346 4.32955 3.22107 3.07554C3.82927 2.47054 4.62473 2.13763 5.461 2.13763C6.29727 2.13763 7.08953 2.47054 7.69293 3.07394L8.09306 3.47407C8.16732 3.54845 8.25551 3.60746 8.35259 3.64772C8.44968 3.68798 8.55375 3.70871 8.65885 3.70871C8.76395 3.70871 8.86802 3.68798 8.9651 3.64772C9.06219 3.60746 9.15038 3.54845 9.22463 3.47407L9.62476 3.07394C10.8348 1.86634 12.885 1.86955 14.0934 3.07234V3.07234Z" fill="black"/>
</svg>
