<svg width="16" height="16" viewBox="0 0 16 16" fill="none" xmlns="http://www.w3.org/2000/svg">
<path d="M7.98725 2.16331C7.11528 1.36153 5.97396 0.916541 4.7894 0.916504C4.16243 0.917157 3.54177 1.04179 2.96315 1.28324C2.38453 1.52468 1.85937 1.87817 1.4179 2.32336C-0.46512 4.21438 -0.46432 7.17215 1.4195 9.05517L7.28702 14.9227C7.42306 15.162 7.68555 15.3164 7.98725 15.3164C8.11113 15.3152 8.233 15.285 8.34307 15.2281C8.45315 15.1713 8.54836 15.0894 8.62105 14.9891L14.555 9.05517C16.4388 7.17135 16.4388 4.21438 14.5534 2.32016C14.1121 1.87579 13.5874 1.52302 13.0094 1.28213C12.4313 1.04124 11.8113 0.916984 11.1851 0.916504C10.0006 0.916698 8.8593 1.36167 7.98725 2.16331V2.16331ZM13.4218 3.45173C14.6726 4.70895 14.6734 6.67279 13.4234 7.9236L7.98725 13.3598L2.55107 7.9236C1.30106 6.67279 1.30186 4.70895 2.54947 3.45494C3.15767 2.84994 3.95313 2.51703 4.7894 2.51703C5.62567 2.51703 6.41793 2.84994 7.02133 3.45333L7.42146 3.85347C7.49572 3.92785 7.58391 3.98686 7.68099 4.02712C7.77808 4.06738 7.88215 4.0881 7.98725 4.0881C8.09235 4.0881 8.19642 4.06738 8.2935 4.02712C8.39059 3.98686 8.47878 3.92785 8.55303 3.85347L8.95316 3.45333C10.1632 2.24574 12.2134 2.24894 13.4218 3.45173V3.45173Z" fill="black"/>
</svg>
