<svg width="17" height="15" viewBox="0 0 17 15" fill="none" xmlns="http://www.w3.org/2000/svg">
<path d="M8.32096 1.78392C7.44899 0.982138 6.30767 0.537147 5.12311 0.537109C4.49614 0.537762 3.87548 0.662398 3.29686 0.903844C2.71824 1.14529 2.19308 1.49878 1.75161 1.94397C-0.13141 3.83499 -0.13061 6.79276 1.75321 8.67577L7.62073 14.5433C7.75677 14.7826 8.01926 14.937 8.32096 14.937C8.44484 14.9358 8.56671 14.9056 8.67678 14.8487C8.78686 14.7919 8.88207 14.71 8.95476 14.6097L14.8887 8.67577C16.7725 6.79196 16.7725 3.83499 14.8871 1.94077C14.4459 1.4964 13.9211 1.14363 13.3431 0.902736C12.765 0.661846 12.145 0.537589 11.5188 0.537109C10.3343 0.537303 9.19301 0.982273 8.32096 1.78392V1.78392ZM13.7555 3.07234C15.0063 4.32955 15.0071 6.29339 13.7571 7.5442L8.32096 12.9804L2.88478 7.5442C1.63477 6.29339 1.63557 4.32955 2.88318 3.07554C3.49138 2.47054 4.28684 2.13763 5.12311 2.13763C5.95938 2.13763 6.75164 2.47054 7.35504 3.07394L7.75517 3.47407C7.82943 3.54845 7.91762 3.60746 8.0147 3.64772C8.11179 3.68798 8.21586 3.70871 8.32096 3.70871C8.42606 3.70871 8.53013 3.68798 8.62721 3.64772C8.7243 3.60746 8.81249 3.54845 8.88674 3.47407L9.28687 3.07394C10.4969 1.86634 12.5471 1.86955 13.7555 3.07234V3.07234Z" fill="black"/>
</svg>
