<svg width="16" height="16" viewBox="0 0 16 16" fill="none" xmlns="http://www.w3.org/2000/svg">
<path d="M7.98722 2.16331C7.11525 1.36153 5.97393 0.916541 4.78937 0.916504C4.1624 0.917157 3.54174 1.04179 2.96312 1.28324C2.3845 1.52468 1.85934 1.87817 1.41787 2.32336C-0.465151 4.21438 -0.46435 7.17215 1.41947 9.05517L7.28699 14.9227C7.42303 15.162 7.68552 15.3164 7.98722 15.3164C8.1111 15.3152 8.23297 15.285 8.34304 15.2281C8.45312 15.1713 8.54833 15.0894 8.62102 14.9891L14.555 9.05517C16.4388 7.17135 16.4388 4.21438 14.5534 2.32016C14.1121 1.87579 13.5874 1.52302 13.0093 1.28213C12.4313 1.04124 11.8113 0.916984 11.1851 0.916504C10.0005 0.916698 8.85927 1.36167 7.98722 2.16331V2.16331ZM13.4218 3.45173C14.6726 4.70895 14.6734 6.67279 13.4234 7.9236L7.98722 13.3598L2.55104 7.9236C1.30103 6.67279 1.30183 4.70895 2.54944 3.45494C3.15764 2.84994 3.9531 2.51703 4.78937 2.51703C5.62564 2.51703 6.4179 2.84994 7.0213 3.45333L7.42143 3.85347C7.49569 3.92785 7.58388 3.98686 7.68096 4.02712C7.77805 4.06738 7.88212 4.0881 7.98722 4.0881C8.09232 4.0881 8.19639 4.06738 8.29347 4.02712C8.39056 3.98686 8.47875 3.92785 8.553 3.85347L8.95313 3.45333C10.1631 2.24574 12.2134 2.24894 13.4218 3.45173V3.45173Z" fill="black"/>
</svg>
