<svg width="16" height="15" viewBox="0 0 16 15" fill="none" xmlns="http://www.w3.org/2000/svg">
<path d="M7.98746 1.78392C7.1155 0.982138 5.97417 0.537147 4.78961 0.537109C4.16264 0.537762 3.54198 0.662398 2.96337 0.903844C2.38475 1.14529 1.85959 1.49878 1.41811 1.94397C-0.464906 3.83499 -0.464106 6.79276 1.41971 8.67577L7.28723 14.5433C7.42328 14.7826 7.68576 14.937 7.98746 14.937C8.11134 14.9358 8.23321 14.9056 8.34329 14.8487C8.45336 14.7919 8.54857 14.71 8.62127 14.6097L14.5552 8.67577C16.439 6.79196 16.439 3.83499 14.5536 1.94077C14.1124 1.4964 13.5876 1.14363 13.0096 0.902736C12.4315 0.661846 11.8115 0.537589 11.1853 0.537109C10.0008 0.537303 8.85951 0.982273 7.98746 1.78392V1.78392ZM13.422 3.07234C14.6728 4.32955 14.6736 6.29339 13.4236 7.5442L7.98746 12.9804L2.55128 7.5442C1.30127 6.29339 1.30207 4.32955 2.54968 3.07554C3.15788 2.47054 3.95334 2.13763 4.78961 2.13763C5.62589 2.13763 6.41815 2.47054 7.02154 3.07394L7.42168 3.47407C7.49593 3.54845 7.58412 3.60746 7.68121 3.64772C7.77829 3.68798 7.88236 3.70871 7.98746 3.70871C8.09256 3.70871 8.19663 3.68798 8.29372 3.64772C8.3908 3.60746 8.47899 3.54845 8.55325 3.47407L8.95338 3.07394C10.1634 1.86634 12.2136 1.86955 13.422 3.07234V3.07234Z" fill="black"/>
</svg>
