<svg width="17" height="16" viewBox="0 0 17 16" fill="none" xmlns="http://www.w3.org/2000/svg">
<path d="M8.65387 2.16331C7.78191 1.36153 6.64058 0.916541 5.45603 0.916504C4.82905 0.917157 4.2084 1.04179 3.62978 1.28324C3.05116 1.52468 2.526 1.87817 2.08452 2.32336C0.201506 4.21438 0.202306 7.17215 2.08612 9.05517L7.95364 14.9227C8.08969 15.162 8.35217 15.3164 8.65387 15.3164C8.77775 15.3152 8.89962 15.285 9.0097 15.2281C9.11977 15.1713 9.21498 15.0894 9.28768 14.9891L15.2216 9.05517C17.1054 7.17135 17.1054 4.21438 15.22 2.32016C14.7788 1.87579 14.254 1.52302 13.676 1.28213C13.0979 1.04124 12.478 0.916984 11.8517 0.916504C10.6672 0.916698 9.52592 1.36167 8.65387 2.16331V2.16331ZM14.0885 3.45173C15.3393 4.70895 15.3401 6.67279 14.0901 7.9236L8.65387 13.3598L3.21769 7.9236C1.96768 6.67279 1.96848 4.70895 3.21609 3.45494C3.82429 2.84994 4.61975 2.51703 5.45603 2.51703C6.2923 2.51703 7.08456 2.84994 7.68796 3.45333L8.08809 3.85347C8.16234 3.92785 8.25053 3.98686 8.34762 4.02712C8.4447 4.06738 8.54877 4.0881 8.65387 4.0881C8.75897 4.0881 8.86304 4.06738 8.96013 4.02712C9.05721 3.98686 9.1454 3.92785 9.21966 3.85347L9.61979 3.45333C10.8298 2.24574 12.8801 2.24894 14.0885 3.45173V3.45173Z" fill="black"/>
</svg>
