<svg width="17" height="15" viewBox="0 0 17 15" fill="none" xmlns="http://www.w3.org/2000/svg">
<path d="M8.65885 1.28392C7.78688 0.482138 6.64556 0.0371466 5.461 0.0371094C4.83403 0.0377622 4.21337 0.162398 3.63475 0.403844C3.05613 0.64529 2.53097 0.99878 2.0895 1.44397C0.20648 3.33499 0.20728 6.29276 2.0911 8.17577L7.95862 14.0433C8.09466 14.2826 8.35715 14.437 8.65885 14.437C8.78273 14.4358 8.9046 14.4056 9.01467 14.3487C9.12475 14.2919 9.21996 14.21 9.29265 14.1097L15.2266 8.17577C17.1104 6.29196 17.1104 3.33499 15.225 1.44077C14.7837 0.996397 14.259 0.643625 13.681 0.402736C13.1029 0.161846 12.4829 0.0375892 11.8567 0.0371094C10.6722 0.037303 9.5309 0.482273 8.65885 1.28392V1.28392ZM14.0934 2.57234C15.3442 3.82955 15.345 5.79339 14.095 7.0442L8.65885 12.4804L3.22267 7.0442C1.97266 5.79339 1.97346 3.82955 3.22107 2.57554C3.82927 1.97054 4.62473 1.63763 5.461 1.63763C6.29727 1.63763 7.08953 1.97054 7.69293 2.57394L8.09306 2.97407C8.16732 3.04845 8.25551 3.10746 8.35259 3.14772C8.44968 3.18798 8.55375 3.20871 8.65885 3.20871C8.76395 3.20871 8.86802 3.18798 8.9651 3.14772C9.06219 3.10746 9.15038 3.04845 9.22463 2.97407L9.62476 2.57394C10.8348 1.36634 12.885 1.36955 14.0934 2.57234V2.57234Z" fill="black"/>
</svg>
