<svg width="17" height="16" viewBox="0 0 17 16" fill="none" xmlns="http://www.w3.org/2000/svg">
<path d="M8.63639 2.16331C7.76442 1.36153 6.6231 0.916541 5.43854 0.916504C4.81157 0.917157 4.19091 1.04179 3.61229 1.28324C3.03367 1.52468 2.50851 1.87817 2.06704 2.32336C0.184019 4.21438 0.18482 7.17215 2.06864 9.05517L7.93616 14.9227C8.0722 15.162 8.33469 15.3164 8.63639 15.3164C8.76027 15.3152 8.88214 15.285 8.99221 15.2281C9.10229 15.1713 9.1975 15.0894 9.27019 14.9891L15.2041 9.05517C17.088 7.17135 17.088 4.21438 15.2025 2.32016C14.7613 1.87579 14.2365 1.52302 13.6585 1.28213C13.0804 1.04124 12.4605 0.916984 11.8342 0.916504C10.6497 0.916698 9.50844 1.36167 8.63639 2.16331V2.16331ZM14.071 3.45173C15.3218 4.70895 15.3226 6.67279 14.0726 7.9236L8.63639 13.3598L3.20021 7.9236C1.9502 6.67279 1.951 4.70895 3.19861 3.45494C3.80681 2.84994 4.60227 2.51703 5.43854 2.51703C6.27481 2.51703 7.06707 2.84994 7.67047 3.45333L8.0706 3.85347C8.14486 3.92785 8.23305 3.98686 8.33013 4.02712C8.42722 4.06738 8.53129 4.0881 8.63639 4.0881C8.74149 4.0881 8.84556 4.06738 8.94264 4.02712C9.03973 3.98686 9.12792 3.92785 9.20217 3.85347L9.6023 3.45333C10.8123 2.24574 12.8626 2.24894 14.071 3.45173V3.45173Z" fill="white"/>
</svg>
