<svg width="135" height="61" viewBox="0 0 135 61" fill="none" xmlns="http://www.w3.org/2000/svg">
<path fill-rule="evenodd" clip-rule="evenodd" d="M23.1073 37.1946C22.0404 37.1946 21.2131 37.8265 21.2131 38.7558C21.2131 39.6851 22.0513 40.3171 23.1073 40.3171C24.1632 40.3171 25.0015 39.6851 25.0015 38.7558C25.0015 37.8265 24.1632 37.1946 23.1073 37.1946ZM109.609 2.34537C109.87 2.33608 110.088 2.21527 110.088 1.8993C110.088 1.4904 109.772 1.38818 109.26 1.38818H108.52V3.07023H109.021V2.36396H109.108L109.544 3.07023H110.12L109.609 2.34537ZM109.293 2.07587H109.01V1.68556H109.25C109.391 1.68556 109.565 1.70414 109.565 1.86213C109.565 2.0387 109.467 2.07587 109.293 2.07587ZM103.632 5.93252L105.94 0.774832H79.7807L70.7996 10.068L74.9473 0.774832H66.2601L52.7612 31.7395H61.3395L67.0983 18.7942L67.4902 31.7395L79.8243 31.7209C56.4516 37.1295 34.2983 42.2501 34.2983 42.2501C21.7683 45.2517 7.47472 38.7094 17.8057 21.071C5.84179 33.0684 -5.46895 49.0526 4.51368 56.4035C14.1915 63.5313 26.2752 59.3122 34.516 56.4964C42.7568 53.6806 133.874 19.9001 133.874 19.9001C134.756 19.5284 134.593 19.0544 133.493 19.2867C133.308 19.3239 115.651 23.4129 95.2826 28.1152L96.2951 25.7083H86.2907L89.5783 18.1994H97.8191L100.356 12.4284H92.1256L94.9561 5.90464H103.632V5.93252ZM76.0032 29.6672L75.4589 13.525L88.4135 1.37888L76.0032 29.6672ZM23.423 38.8674C23.6842 38.8581 23.902 38.7372 23.902 38.4213C23.902 38.0124 23.5863 37.9195 23.0746 37.9195H22.3344V39.6015H22.8351V38.8859H22.9222L23.3794 39.6015H23.9455L23.423 38.8674ZM23.1073 38.5979H22.8242V38.2075H23.0637C23.2052 38.2075 23.3794 38.2261 23.3794 38.3841C23.3794 38.5607 23.2815 38.5979 23.1073 38.5979ZM109.282 0.672607C108.215 0.672607 107.388 1.30454 107.388 2.23385C107.388 3.16317 108.226 3.7951 109.282 3.7951C110.338 3.7951 111.176 3.16317 111.176 2.23385C111.187 1.30454 110.349 0.672607 109.282 0.672607ZM109.282 3.34903C108.52 3.34903 107.965 2.87508 107.965 2.23385C107.965 1.59263 108.52 1.11868 109.282 1.11868C110.033 1.11868 110.599 1.60192 110.599 2.23385C110.61 2.86579 110.033 3.34903 109.282 3.34903ZM23.1073 39.871C22.3452 39.871 21.79 39.3971 21.79 38.7558C21.79 38.1146 22.3452 37.6407 23.1073 37.6407C23.8584 37.6407 24.4245 38.1239 24.4245 38.7558C24.4245 39.3878 23.8475 39.871 23.1073 39.871ZM41.5593 31.7302H32.3279L33.3729 18.0322L27.3747 31.7302H18.7963L32.415 0.765539H41.5376L40.4816 14.6495L46.5888 0.765539H55.1671L41.5593 31.7302ZM42.6697 31.7302L56.2775 0.765539H64.8558L51.248 31.7302H42.6697Z" fill="white"/>
</svg>
