<svg width="17" height="15" viewBox="0 0 17 15" fill="none" xmlns="http://www.w3.org/2000/svg">
<path d="M8.65396 1.28392C7.782 0.482138 6.64067 0.0371466 5.45612 0.0371094C4.82914 0.0377622 4.20849 0.162398 3.62987 0.403844C3.05125 0.64529 2.52609 0.99878 2.08461 1.44397C0.201597 3.33499 0.202398 6.29276 2.08621 8.17577L7.95374 14.0433C8.08978 14.2826 8.35227 14.437 8.65396 14.437C8.77784 14.4358 8.89972 14.4056 9.00979 14.3487C9.11986 14.2919 9.21507 14.21 9.28777 14.1097L15.2217 8.17577C17.1055 6.29196 17.1055 3.33499 15.2201 1.44077C14.7789 0.996397 14.2541 0.643625 13.6761 0.402736C13.098 0.161846 12.478 0.0375892 11.8518 0.0371094C10.6673 0.037303 9.52601 0.482273 8.65396 1.28392V1.28392ZM14.0885 2.57234C15.3394 3.82955 15.3402 5.79339 14.0901 7.0442L8.65396 12.4804L3.21778 7.0442C1.96778 5.79339 1.96858 3.82955 3.21618 2.57554C3.82438 1.97054 4.61984 1.63763 5.45612 1.63763C6.29239 1.63763 7.08465 1.97054 7.68805 2.57394L8.08818 2.97407C8.16243 3.04845 8.25063 3.10746 8.34771 3.14772C8.44479 3.18798 8.54886 3.20871 8.65396 3.20871C8.75907 3.20871 8.86314 3.18798 8.96022 3.14772C9.0573 3.10746 9.1455 3.04845 9.21975 2.97407L9.61988 2.57394C10.8299 1.36634 12.8801 1.36955 14.0885 2.57234V2.57234Z" fill="black"/>
</svg>
