<svg width="17" height="15" viewBox="0 0 17 15" fill="none" xmlns="http://www.w3.org/2000/svg">
<path d="M8.31656 1.28392C7.4446 0.482138 6.30327 0.0371466 5.11872 0.0371094C4.49174 0.0377622 3.87109 0.162398 3.29247 0.403844C2.71385 0.64529 2.18869 0.99878 1.74721 1.44397C-0.135805 3.33499 -0.135005 6.29276 1.74881 8.17577L7.61633 14.0433C7.75238 14.2826 8.01486 14.437 8.31656 14.437C8.44044 14.4358 8.56231 14.4056 8.67239 14.3487C8.78246 14.2919 8.87767 14.21 8.95037 14.1097L14.8843 8.17577C16.7681 6.29196 16.7681 3.33499 14.8827 1.44077C14.4415 0.996397 13.9167 0.643625 13.3387 0.402736C12.7606 0.161846 12.1406 0.0375892 11.5144 0.0371094C10.3299 0.037303 9.18861 0.482273 8.31656 1.28392V1.28392ZM13.7511 2.57234C15.002 3.82955 15.0028 5.79339 13.7527 7.0442L8.31656 12.4804L2.88038 7.0442C1.63037 5.79339 1.63117 3.82955 2.87878 2.57554C3.48698 1.97054 4.28244 1.63763 5.11872 1.63763C5.95499 1.63763 6.74725 1.97054 7.35065 2.57394L7.75078 2.97407C7.82503 3.04845 7.91322 3.10746 8.01031 3.14772C8.10739 3.18798 8.21146 3.20871 8.31656 3.20871C8.42166 3.20871 8.52573 3.18798 8.62282 3.14772C8.7199 3.10746 8.80809 3.04845 8.88235 2.97407L9.28248 2.57394C10.4925 1.36634 12.5427 1.36955 13.7511 2.57234V2.57234Z" fill="black"/>
</svg>
