<svg width="17" height="16" viewBox="0 0 17 16" fill="none" xmlns="http://www.w3.org/2000/svg">
<path d="M8.04117 2.16331C7.16921 1.36153 6.02788 0.916541 4.84332 0.916504C4.21635 0.917157 3.5957 1.04179 3.01708 1.28324C2.43846 1.52468 1.9133 1.87817 1.47182 2.32336C-0.411196 4.21438 -0.410395 7.17215 1.47342 9.05517L7.34094 14.9227C7.47699 15.162 7.73947 15.3164 8.04117 15.3164C8.16505 15.3152 8.28692 15.285 8.397 15.2281C8.50707 15.1713 8.60228 15.0894 8.67498 14.9891L14.6089 9.05517C16.4927 7.17135 16.4927 4.21438 14.6073 2.32016C14.1661 1.87579 13.6413 1.52302 13.0633 1.28213C12.4852 1.04124 11.8653 0.916984 11.239 0.916504C10.0545 0.916698 8.91322 1.36167 8.04117 2.16331V2.16331ZM13.4758 3.45173C14.7266 4.70895 14.7274 6.67279 13.4774 7.9236L8.04117 13.3598L2.60499 7.9236C1.35498 6.67279 1.35578 4.70895 2.60339 3.45494C3.21159 2.84994 4.00705 2.51703 4.84332 2.51703C5.6796 2.51703 6.47186 2.84994 7.07526 3.45333L7.47539 3.85347C7.54964 3.92785 7.63783 3.98686 7.73492 4.02712C7.832 4.06738 7.93607 4.0881 8.04117 4.0881C8.14627 4.0881 8.25034 4.06738 8.34743 4.02712C8.44451 3.98686 8.5327 3.92785 8.60696 3.85347L9.00709 3.45333C10.2171 2.24574 12.2674 2.24894 13.4758 3.45173V3.45173Z" fill="black"/>
</svg>
