<svg width="49" height="16" viewBox="0 0 49 16" fill="none" xmlns="http://www.w3.org/2000/svg">
<g clip-path="url(#clip0_316_8531)">
<path d="M21.233 15.7692H17.2637L19.7464 0.280762H23.7155L21.233 15.7692Z" fill="#00579F"/>
<path d="M35.6223 0.659404C34.8393 0.346017 33.5976 0 32.0621 0C28.1422 0 25.3819 2.10895 25.365 5.12412C25.3324 7.3487 27.3413 8.58429 28.8438 9.32604C30.3794 10.084 30.9015 10.5787 30.9015 11.2543C30.8858 12.2919 29.6606 12.7702 28.5177 12.7702C26.933 12.7702 26.0839 12.5236 24.7935 11.9464L24.2708 11.6989L23.7153 15.1757C24.6463 15.6036 26.3615 15.9834 28.1422 16C32.3071 16 35.0186 13.9237 35.0508 10.7105C35.0666 8.94739 34.0058 7.59639 31.7189 6.49242C30.3306 5.78374 29.4804 5.30589 29.4804 4.58079C29.4967 3.9216 30.1995 3.24643 31.7667 3.24643C33.0571 3.21336 34.0052 3.52631 34.7234 3.83948L35.0824 4.00394L35.6223 0.659404V0.659404Z" fill="#00579F"/>
<path d="M40.8985 10.2822C41.2254 9.3924 42.4833 5.94865 42.4833 5.94865C42.4668 5.98172 42.8095 5.04244 43.0055 4.46582L43.2829 5.80039C43.2829 5.80039 44.0346 9.50781 44.1978 10.2822C43.5775 10.2822 41.6826 10.2822 40.8985 10.2822ZM45.7982 0.280762H42.7279C41.7811 0.280762 41.0618 0.560641 40.6533 1.56584L34.7573 15.769H38.9222C38.9222 15.769 39.6079 13.8573 39.7553 13.4456C40.2122 13.4456 44.2638 13.4456 44.8516 13.4456C44.9656 13.9894 45.3252 15.769 45.3252 15.769H49.0005L45.7982 0.280762V0.280762Z" fill="#00579F"/>
<path d="M13.9479 0.280762L10.0606 10.8424L9.63583 8.70036C8.91715 6.22875 6.66322 3.5434 4.14795 2.20816L7.70857 15.7528H11.906L18.1452 0.280762H13.9479V0.280762Z" fill="#00579F"/>
<path d="M6.45162 0.280762H0.0653342L0 0.59371C4.9817 1.87901 8.28099 4.97718 9.63651 8.70102L8.24821 1.58271C8.01965 0.593491 7.31725 0.313392 6.45162 0.280762Z" fill="#F4A622"/>
</g>
<defs>
<clipPath id="clip0_316_8531">
<rect width="49" height="16" fill="white"/>
</clipPath>
</defs>
</svg>
